<?xml version="1.0" encoding="utf-8"?>
<!-- Generator: Adobe Illustrator 16.0.0, SVG Export Plug-In . SVG Version: 6.00 Build 0)  -->
<!DOCTYPE svg PUBLIC "-//W3C//DTD SVG 1.1//EN" "http://www.w3.org/Graphics/SVG/1.1/DTD/svg11.dtd">
<svg version="1.1" xmlns="http://www.w3.org/2000/svg" xmlns:xlink="http://www.w3.org/1999/xlink" x="0px" y="0px" width="361px"
	 height="358px" viewBox="0 0 361 358" enable-background="new 0 0 361 358" xml:space="preserve">
<g id="Layer_1">
	<g>
		<defs>
			<rect id="SVGID_1_" x="-17" y="-16" width="396" height="396"/>
		</defs>
		<clipPath id="SVGID_2_">
			<use xlink:href="#SVGID_1_"  overflow="visible"/>
		</clipPath>
		<g clip-path="url(#SVGID_2_)">
			<text transform="matrix(1 0 0 1 130.7861 175.7827)"><tspan x="0" y="0" font-family="'Trenda-Regular'" font-size="12">S</tspan><tspan x="6.744" y="0" font-family="'Trenda-Regular'" font-size="12">ha</tspan><tspan x="20.748" y="0" font-family="'Trenda-Regular'" font-size="12">r</tspan><tspan x="24.648" y="0" font-family="'Trenda-Regular'" font-size="12">e</tspan><tspan x="31.032" y="0" font-family="'Trenda-Regular'" font-size="12"> </tspan><tspan x="33.936" y="0" font-family="'Trenda-Regular'" font-size="12">y</tspan><tspan x="39.839" y="0" font-family="'Trenda-Regular'" font-size="12">ou</tspan><tspan x="53.483" y="0" font-family="'Trenda-Regular'" font-size="12">r</tspan><tspan x="57.407" y="0" font-family="'Trenda-Regular'" font-size="12"> </tspan><tspan x="60.312" y="0" font-family="'Trenda-Regular'" font-size="12">t</tspan><tspan x="65.075" y="0" font-family="'Trenda-Regular'" font-size="12">ale</tspan><tspan x="81.275" y="0" font-family="'Trenda-Regular'" font-size="12">n</tspan><tspan x="88.103" y="0" font-family="'Trenda-Regular'" font-size="12">ts.</tspan></text>
		</g>
		<g clip-path="url(#SVGID_2_)">
			<text transform="matrix(1 0 0 1 146.5903 193.7822)"><tspan x="0" y="0" font-family="'Trenda-Regular'" font-size="12">J</tspan><tspan x="5.508" y="0" font-family="'Trenda-Regular'" font-size="12">oin a g</tspan><tspan x="42.131" y="0" font-family="'Trenda-Regular'" font-size="12">r</tspan><tspan x="46.019" y="0" font-family="'Trenda-Regular'" font-size="12">ou</tspan><tspan x="59.664" y="0" font-family="'Trenda-Regular'" font-size="12">p</tspan><tspan x="66.599" y="0" font-family="'Trenda-Regular'" font-size="12">.</tspan></text>
		</g>
		<g clip-path="url(#SVGID_2_)">
			<text transform="matrix(1 0 0 1 142.0781 211.7822)"><tspan x="0" y="0" font-family="'Trenda-Regular'" font-size="12">E</tspan><tspan x="7.176" y="0" font-family="'Trenda-Regular'" font-size="12">f</tspan><tspan x="11.472" y="0" font-family="'Trenda-Regular'" font-size="12">f</tspan><tspan x="15.516" y="0" font-family="'Trenda-Regular'" font-size="12">ect change.</tspan></text>
		</g>
		<g clip-path="url(#SVGID_2_)">
			<defs>
				<rect id="SVGID_3_" x="-17" y="-16" width="396" height="396"/>
			</defs>
			<clipPath id="SVGID_4_">
				<use xlink:href="#SVGID_3_"  overflow="visible"/>
			</clipPath>
			<g opacity="0.3" clip-path="url(#SVGID_4_)">
				<g>
					<defs>
						<rect id="SVGID_5_" x="42" y="30" width="117.234" height="126"/>
					</defs>
					<clipPath id="SVGID_6_">
						<use xlink:href="#SVGID_5_"  overflow="visible"/>
					</clipPath>
					<path clip-path="url(#SVGID_6_)" fill="#F15A29" d="M126.758,33.861C119.976,31.365,112.648,30,105,30
						c-34.794,0-63,28.206-63,63s28.206,63,63,63c23.088,0,43.263-12.426,54.234-30.949c-8.31-3.053-16.11-7.899-22.782-14.571
						C115.676,89.704,112.446,58.028,126.758,33.861"/>
				</g>
			</g>
			<g opacity="0.3" clip-path="url(#SVGID_4_)">
				<g>
					<defs>
						<rect id="SVGID_7_" x="2.364" y="98.775" width="126" height="126"/>
					</defs>
					<clipPath id="SVGID_8_">
						<use xlink:href="#SVGID_7_"  overflow="visible"/>
					</clipPath>
					<path clip-path="url(#SVGID_8_)" fill="#FBB040" d="M20.816,117.227c-24.603,24.603-24.603,64.492,0,89.095
						c24.603,24.604,64.493,24.604,89.096,0c24.603-24.603,24.603-64.492,0-89.095S45.419,92.624,20.816,117.227"/>
				</g>
			</g>
			<g opacity="0.3" clip-path="url(#SVGID_4_)">
				<g>
					<defs>
						<rect id="SVGID_9_" x="14.606" y="175.783" width="126" height="126"/>
					</defs>
					<clipPath id="SVGID_10_">
						<use xlink:href="#SVGID_9_"  overflow="visible"/>
					</clipPath>
					<path clip-path="url(#SVGID_10_)" fill="#D7DF23" d="M14.606,238.783c0-34.794,28.206-63,63-63c34.793,0,63,28.206,63,63
						s-28.207,63-63,63C42.812,301.783,14.606,273.577,14.606,238.783"/>
				</g>
			</g>
			<g opacity="0.3" clip-path="url(#SVGID_4_)">
				<g>
					<defs>
						<rect id="SVGID_11_" x="77.606" y="229.718" width="126" height="126.001"/>
					</defs>
					<clipPath id="SVGID_12_">
						<use xlink:href="#SVGID_11_"  overflow="visible"/>
					</clipPath>
					<path clip-path="url(#SVGID_12_)" fill="#009444" d="M203.606,292.719c0,34.794-28.207,63-63,63c-34.794,0-63-28.206-63-63
						s28.206-63,63-63C175.399,229.719,203.606,257.925,203.606,292.719"/>
				</g>
			</g>
			<g opacity="0.3" clip-path="url(#SVGID_4_)">
				<g>
					<defs>
						<rect id="SVGID_13_" x="157.004" y="229.718" width="126" height="126.001"/>
					</defs>
					<clipPath id="SVGID_14_">
						<use xlink:href="#SVGID_13_"  overflow="visible"/>
					</clipPath>
					<path clip-path="url(#SVGID_14_)" fill="#00A79D" d="M264.552,248.171c24.603,24.603,24.603,64.492,0,89.095
						c-24.604,24.604-64.492,24.604-89.096,0c-24.603-24.603-24.603-64.492,0-89.095
						C200.06,223.567,239.948,223.567,264.552,248.171"/>
				</g>
			</g>
			<g opacity="0.3" clip-path="url(#SVGID_4_)">
				<g>
					<defs>
						<rect id="SVGID_15_" x="219.26" y="178.664" width="126" height="126"/>
					</defs>
					<clipPath id="SVGID_16_">
						<use xlink:href="#SVGID_15_"  overflow="visible"/>
					</clipPath>
					<path clip-path="url(#SVGID_16_)" fill="#1C75BC" d="M282.26,178.664c34.794,0,63,28.206,63,63s-28.206,63-63,63
						s-63-28.206-63-63S247.466,178.664,282.26,178.664"/>
				</g>
			</g>
			<g opacity="0.3" clip-path="url(#SVGID_4_)">
				<g>
					<defs>
						<rect id="SVGID_17_" x="233.089" y="98.775" width="126" height="126"/>
					</defs>
					<clipPath id="SVGID_18_">
						<use xlink:href="#SVGID_17_"  overflow="visible"/>
					</clipPath>
					<path clip-path="url(#SVGID_18_)" fill="#662D91" d="M340.637,117.227c-24.604-24.603-64.493-24.603-89.096,0
						c-24.604,24.603-24.604,64.492,0,89.095c24.603,24.604,64.491,24.604,89.096,0C365.239,181.719,365.239,141.83,340.637,117.227
						"/>
				</g>
			</g>
			<g opacity="0.3" clip-path="url(#SVGID_4_)">
				<g>
					<defs>
						<rect id="SVGID_19_" x="192.584" y="29.589" width="126.008" height="126.007"/>
					</defs>
					<clipPath id="SVGID_20_">
						<use xlink:href="#SVGID_19_"  overflow="visible"/>
					</clipPath>
					<path clip-path="url(#SVGID_20_)" fill="#EE2A7B" d="M261.079,29.832c34.661,3.033,60.302,33.589,57.27,68.251
						c-3.033,34.662-33.59,60.302-68.251,57.27c-34.662-3.033-60.303-33.59-57.27-68.251
						C195.86,52.44,226.417,26.799,261.079,29.832"/>
				</g>
			</g>
			<g opacity="0.3" clip-path="url(#SVGID_4_)">
				<g>
					<defs>
						<rect id="SVGID_21_" x="118.001" y="3" width="125.998" height="125.932"/>
					</defs>
					<clipPath id="SVGID_22_">
						<use xlink:href="#SVGID_21_"  overflow="visible"/>
					</clipPath>
					<path clip-path="url(#SVGID_22_)" fill="#BE1E2D" d="M225.548,110.479c12.293-12.293,18.442-28.402,18.451-44.514
						c-0.009-16.111-6.158-32.22-18.451-44.513c-24.604-24.603-64.493-24.603-89.096,0c-12.293,12.293-18.443,28.402-18.451,44.513
						c0.008,16.112,6.158,32.221,18.451,44.514C161.055,135.083,200.944,135.083,225.548,110.479"/>
				</g>
			</g>
			<g opacity="0.3" clip-path="url(#SVGID_4_)">
				<g>
					<defs>
						<rect id="SVGID_23_" x="118.001" y="33.861" width="49.999" height="91.19"/>
					</defs>
					<clipPath id="SVGID_24_">
						<use xlink:href="#SVGID_23_"  overflow="visible"/>
					</clipPath>
					<path clip-path="url(#SVGID_24_)" fill="#F15A29" d="M126.758,33.861c-14.312,24.167-11.082,55.843,9.694,76.619
						c6.672,6.672,14.472,11.518,22.782,14.571C164.796,115.66,168,104.706,168,93C168,65.854,150.83,42.72,126.758,33.861"/>
				</g>
			</g>
		</g>
	</g>
</g>
<g id="_x5F__x5F_legislative">
	<g>
		<defs>
			<rect id="SVGID_25_" x="-17" y="-16" width="396" height="396"/>
		</defs>
		<clipPath id="SVGID_26_">
			<use xlink:href="#SVGID_25_"  overflow="visible"/>
		</clipPath>
		<path clip-path="url(#SVGID_26_)" fill="#010101" d="M189.391,29.083v-2.65h-1.756v-5.709h1.012v-2.168h-1.157
			c0,0,0-2.167-1.444-4.046c-1.446-1.878-3.181-2.746-3.181-2.746V8.705h-0.867V6.558h-1.59v2.147h-0.866v3.059
			c0,0-1.735,0.867-3.181,2.746c-1.446,1.878-1.445,4.046-1.445,4.046h-1.156v2.167h1.012v5.71h-1.914v2.65h-9.323v13.474h2.718
			v-5.6h1.923v5.601h2.048v-5.601h1.923v5.601h2.048v-5.601h1.924v5.601h2.048v-5.601h1.922v5.601h2.049v-5.601h1.924v5.601h2.048
			v-5.601h1.923v5.601h2.048v-5.601h1.923v5.601h2.048v-5.601h1.924v5.601h2.755V29.083H189.391z M168.175,35.515h-1.923v-1.793
			h1.923V35.515z M172.146,35.515h-1.923v-1.793h1.923V35.515z M183.873,20.739h1.923v5.654h-1.923V20.739z M180.208,20.739h1.924
			v5.654h-1.924V20.739z M176.544,20.739h1.923v5.654h-1.923V20.739z M176.118,35.515h-1.924v-1.793h1.924V35.515z M180.088,35.515
			h-1.923v-1.793h1.923V35.515z M184.06,35.515h-1.923v-1.793h1.923V35.515z M174.532,31.576l6.581-2.725l6.755,2.725H174.532z
			 M188.031,35.515h-1.924v-1.793h1.924V35.515z M192.002,35.515h-1.923v-1.793h1.923V35.515z M195.974,35.515h-1.924v-1.793h1.924
			V35.515z"/>
	</g>
	<text transform="matrix(1 0 0 1 134.2422 56.7998)"><tspan x="0" y="0" font-family="'GothamCondensed-Bold'" font-size="16">L</tspan><tspan x="4.8" y="0" font-family="'GothamCondensed-Bold'" font-size="16">E</tspan><tspan x="9.936" y="0" font-family="'GothamCondensed-Bold'" font-size="16">GIS</tspan><tspan x="24.784" y="0" font-family="'GothamCondensed-Bold'" font-size="16">L</tspan><tspan x="29.52" y="0" font-family="'GothamCondensed-Bold'" font-size="16">A</tspan><tspan x="35.423" y="0" font-family="'GothamCondensed-Bold'" font-size="16">TIVE</tspan></text>
	<text transform="matrix(1 0 0 1 134.2422 65.1997)"><tspan x="0" y="0" font-family="'Trenda-Regular'" font-size="7">T</tspan><tspan x="3.465" y="0" font-family="'Trenda-Regular'" font-size="7">r</tspan><tspan x="5.74" y="0" font-family="'Trenda-Regular'" font-size="7">ac</tspan><tspan x="13.223" y="0" font-family="'Trenda-Regular'" font-size="7">k</tspan><tspan x="16.597" y="0" font-family="'Trenda-Regular'" font-size="7">s legislati</tspan><tspan x="45.73" y="0" font-family="'Trenda-Regular'" font-size="7">v</tspan><tspan x="49.188" y="0" font-family="'Trenda-Regular'" font-size="7">e action</tspan></text>
	<text transform="matrix(1 0 0 1 134.2422 73.5996)"><tspan x="0" y="0" font-family="'Trenda-Regular'" font-size="7">C</tspan><tspan x="4.732" y="0" font-family="'Trenda-Regular'" font-size="7">r</tspan><tspan x="7.007" y="0" font-family="'Trenda-Regular'" font-size="7">ea</tspan><tspan x="14.861" y="0" font-family="'Trenda-Regular'" font-size="7">t</tspan><tspan x="17.64" y="0" font-family="'Trenda-Regular'" font-size="7">es dail</tspan><tspan x="37.667" y="0" font-family="'Trenda-Regular'" font-size="7">y</tspan><tspan x="41.125" y="0" font-family="'Trenda-Regular'" font-size="7"> action i</tspan><tspan x="66.128" y="0" font-family="'Trenda-Regular'" font-size="7">t</tspan><tspan x="68.907" y="0" font-family="'Trenda-Regular'" font-size="7">ems</tspan></text>
	<text transform="matrix(1 0 0 1 134.2422 81.9995)"><tspan x="0" y="0" font-family="'Trenda-Regular'" font-size="7">I</tspan><tspan x="1.904" y="0" font-family="'Trenda-Regular'" font-size="7">nitia</tspan><tspan x="16.065" y="0" font-family="'Trenda-Regular'" font-size="7">t</tspan><tspan x="18.844" y="0" font-family="'Trenda-Regular'" font-size="7">es g</tspan><tspan x="31.556" y="0" font-family="'Trenda-Regular'" font-size="7">r</tspan><tspan x="33.831" y="0" font-family="'Trenda-Regular'" font-size="7">oup wide </tspan><tspan x="64.266" y="0" font-family="'Trenda-Regular'" font-size="7">ev</tspan><tspan x="71.357" y="0" font-family="'Trenda-Regular'" font-size="7">e</tspan><tspan x="75.081" y="0" font-family="'Trenda-Regular'" font-size="7">n</tspan><tspan x="79.057" y="0" font-family="'Trenda-Regular'" font-size="7">ts</tspan></text>
</g>
<g id="_x5F__x5F_allyship-diversity">
	<text transform="matrix(1 0 0 1 200.6064 96.5449)"><tspan x="0" y="0" font-family="'GothamCondensed-Bold'" font-size="16">AL</tspan><tspan x="11.168" y="0" font-family="'GothamCondensed-Bold'" font-size="16">L</tspan><tspan x="15.344" y="0" font-family="'GothamCondensed-Bold'" font-size="16">YSHI</tspan><tspan x="36.575" y="0" font-family="'GothamCondensed-Bold'" font-size="16">P</tspan><tspan x="41.951" y="0" font-family="'GothamCondensed-Bold'" font-size="16">/DIVERSI</tspan><tspan x="82.814" y="0" font-family="'GothamCondensed-Bold'" font-size="16">T</tspan><tspan x="87.854" y="0" font-family="'GothamCondensed-Bold'" font-size="16">Y</tspan></text>
	<text transform="matrix(1 0 0 1 200.6064 104.9448)"><tspan x="0" y="0" font-family="'Trenda-Regular'" font-size="7">B</tspan><tspan x="4.606" y="0" font-family="'Trenda-Regular'" font-size="7">uilds </tspan><tspan x="20.762" y="0" font-family="'Trenda-Regular'" font-size="7">c</tspan><tspan x="24.052" y="0" font-family="'Trenda-Regular'" font-size="7">ommunit</tspan><tspan x="52.989" y="0" font-family="'Trenda-Regular'" font-size="7">y</tspan><tspan x="56.454" y="0" font-family="'Trenda-Regular'" font-size="7"> </tspan><tspan x="58.211" y="0" font-family="'Trenda-Regular'" font-size="7">r</tspan><tspan x="60.486" y="0" font-family="'Trenda-Regular'" font-size="7">elationships</tspan></text>
	<text transform="matrix(1 0 0 1 200.6064 113.3447)"><tspan x="0" y="0" font-family="'Trenda-Regular'" font-size="7">M</tspan><tspan x="6.188" y="0" font-family="'Trenda-Regular'" font-size="7">ai</tspan><tspan x="11.9" y="0" font-family="'Trenda-Regular'" font-size="7">n</tspan><tspan x="15.876" y="0" font-family="'Trenda-Regular'" font-size="7">t</tspan><tspan x="18.655" y="0" font-family="'Trenda-Regular'" font-size="7">ains </tspan><tspan x="33.271" y="0" font-family="'Trenda-Regular'" font-size="7">c</tspan><tspan x="36.561" y="0" font-family="'Trenda-Regular'" font-size="7">ommitme</tspan><tspan x="67.465" y="0" font-family="'Trenda-Regular'" font-size="7">n</tspan><tspan x="71.448" y="0" font-family="'Trenda-Regular'" font-size="7">t</tspan><tspan x="74.276" y="0" font-family="'Trenda-Regular'" font-size="7"> </tspan><tspan x="75.97" y="0" font-family="'Trenda-Regular'" font-size="7">t</tspan><tspan x="78.749" y="0" font-family="'Trenda-Regular'" font-size="7">o inclusivity</tspan></text>
	<text transform="matrix(1 0 0 1 200.6064 121.7446)"><tspan x="0" y="0" font-family="'Trenda-Regular'" font-size="7">A</tspan><tspan x="4.669" y="0" font-family="'Trenda-Regular'" font-size="7">cti</tspan><tspan x="12.432" y="0" font-family="'Trenda-Regular'" font-size="7">v</tspan><tspan x="15.89" y="0" font-family="'Trenda-Regular'" font-size="7">el</tspan><tspan x="21.21" y="0" font-family="'Trenda-Regular'" font-size="7">y</tspan><tspan x="24.668" y="0" font-family="'Trenda-Regular'" font-size="7"> see</tspan><tspan x="36.98" y="0" font-family="'Trenda-Regular'" font-size="7">k</tspan><tspan x="40.354" y="0" font-family="'Trenda-Regular'" font-size="7">s di</tspan><tspan x="50.932" y="0" font-family="'Trenda-Regular'" font-size="7">v</tspan><tspan x="54.389" y="0" font-family="'Trenda-Regular'" font-size="7">e</tspan><tspan x="58.113" y="0" font-family="'Trenda-Regular'" font-size="7">r</tspan><tspan x="60.514" y="0" font-family="'Trenda-Regular'" font-size="7">se ideas</tspan></text>
	<g>
		<defs>
			<rect id="SVGID_27_" x="-17" y="-16" width="396" height="396"/>
		</defs>
		<clipPath id="SVGID_28_">
			<use xlink:href="#SVGID_27_"  overflow="visible"/>
		</clipPath>
		<path clip-path="url(#SVGID_28_)" fill="#010101" d="M258.887,50.01c4.309-4.077,10.568-4.289,14.853-0.533l10.588,11.072
			c0.819,0.863,0.784,2.236-0.084,3.055c-0.42,0.4-0.968,0.617-1.546,0.592c-0.577-0.015-1.114-0.256-1.51-0.676l-6.698-7.063
			c-0.148-0.158-0.38-0.203-0.578-0.104c-0.024,0.009-2.463,1.16-5.76-2.315c-0.188-0.203-0.499-0.207-0.696-0.02
			s-0.207,0.499-0.02,0.696c3.087,3.258,5.647,2.922,6.561,2.655l1.702,1.792l-10.735,10.149c-0.533,0.503-0.81,1.169-0.85,1.851
			l-1.485-1.585c-0.016-0.015-0.04-0.025-0.055-0.035l-3.761-3.988C254.483,60.983,254.519,54.156,258.887,50.01 M268.077,72.603
			c-0.711,0.667-1.832,0.637-2.503-0.069c-0.671-0.71-0.642-1.836,0.069-2.507l10.73-10.143l2.527,2.66
			c-0.118,0.006-0.231,0.045-0.325,0.133L268.077,72.603z M274.603,82.316L274.603,82.316l-0.819-0.874
			c-0.005-0.004-0.005-0.015-0.01-0.019c-0.311-0.336-0.479-0.771-0.479-1.226c0-0.014-0.005-0.028-0.005-0.044
			c0.016-0.463,0.208-0.894,0.543-1.204c0.346-0.317,0.79-0.474,1.244-0.454c0.459,0.025,0.889,0.227,1.204,0.573l1.466,1.604
			l0.386,0.419l-1.229,1.149C276.148,82.958,275.239,82.987,274.603,82.316 M283.093,71.151c0.024-0.415,0.202-0.795,0.503-1.072
			c0.281-0.257,0.647-0.399,1.032-0.399c0.425,0,0.829,0.178,1.115,0.49l1.821,2.038l-1.303,1.228l-0.903,0.859l-1.876-2.054
			c-0.005-0.005-0.01-0.014-0.02-0.021C283.206,71.93,283.072,71.551,283.093,71.151 M282.751,72.908l1.886,2.063l-2.566,2.399
			l-1.91-2.077c-0.316-0.346-0.479-0.79-0.46-1.259c0.02-0.469,0.223-0.898,0.568-1.215c0.325-0.3,0.755-0.469,1.205-0.469
			c0.488,0,0.938,0.193,1.268,0.543C282.747,72.899,282.747,72.903,282.751,72.908 M279.499,76.037l1.851,2.009l-2.502,2.37
			l-1.871-2.054c-0.32-0.341-0.483-0.79-0.464-1.259c0.02-0.464,0.222-0.898,0.567-1.215c0.317-0.291,0.702-0.443,1.121-0.443
			C278.68,75.446,279.153,75.663,279.499,76.037 M297.959,58.154c-0.163,2.868-1.466,5.598-3.672,7.686l-6.007,5.686l-1.806-2.018
			c-0.474-0.518-1.146-0.814-1.847-0.814c-0.631,0-1.233,0.236-1.698,0.662c-0.492,0.453-0.783,1.071-0.819,1.736
			c-0.01,0.119,0.005,0.238,0.015,0.351c-0.212-0.049-0.43-0.079-0.651-0.079c-0.696,0-1.362,0.257-1.876,0.725
			c-0.538,0.499-0.849,1.169-0.883,1.901c-0.006,0.178,0.004,0.356,0.029,0.528c-0.179-0.039-0.361-0.059-0.543-0.059
			c-0.662,0-1.294,0.252-1.787,0.706c-0.543,0.493-0.854,1.168-0.884,1.9c-0.009,0.172,0,0.345,0.024,0.513
			c-0.138-0.033-0.281-0.059-0.429-0.064c-0.726-0.035-1.422,0.217-1.96,0.71c-0.386,0.357-0.646,0.805-0.775,1.303
			c-0.236-0.074-0.474-0.187-0.642-0.366c-0.672-0.705-0.627-1.885,0.094-2.571l10.498-9.932c0.198-0.187,0.208-0.503,0.021-0.701
			c-0.188-0.198-0.499-0.207-0.695-0.019l-10.499,9.937l-0.054,0.049c-0.341,0.325-0.791,0.498-1.265,0.482
			c-0.474-0.013-0.911-0.206-1.238-0.55c-0.671-0.712-0.642-1.798,0.074-2.474c0.005-0.006,0.01-0.015,0.015-0.02
			c0.015-0.015,0.039-0.03,0.055-0.044l10.503-9.926c0.089-0.084,0.134-0.203,0.148-0.316l1.062,1.125
			c0.582,0.612,1.361,0.963,2.206,0.982c0.845,0.02,1.64-0.28,2.251-0.863c1.259-1.195,1.313-3.189,0.119-4.453l-7.81-8.159
			l1.95-1.826c4.496-4.255,11.619-4.062,15.874,0.434C297.096,52.468,298.128,55.252,297.959,58.154"/>
	</g>
</g>
<g id="_x5F__x5F_membership">
	<g>
		<defs>
			<rect id="SVGID_29_" x="-17" y="-16" width="396" height="396"/>
		</defs>
		<clipPath id="SVGID_30_">
			<use xlink:href="#SVGID_29_"  overflow="visible"/>
		</clipPath>
		<path clip-path="url(#SVGID_30_)" fill="#010101" d="M330.404,142.036c0.84-0.838,1.375-1.91,1.535-3.079
			c0.159,1.168,0.694,2.241,1.534,3.079c-0.522,0.187-1.036,0.413-1.534,0.678C331.439,142.449,330.926,142.223,330.404,142.036
			 M321.652,140.584c-0.162,0.627-0.268,1.273-0.312,1.932c0.061-0.002,0.116-0.009,0.176-0.009c0.016,0,0.031,0.003,0.048,0.003
			c0.364-0.176,0.735-0.339,1.121-0.476C322.257,141.607,321.913,141.117,321.652,140.584 M342.347,142.526
			c0.063-0.005,0.127-0.007,0.19-0.01c-0.045-0.659-0.149-1.304-0.312-1.93c-0.26,0.53-0.604,1.021-1.031,1.448
			C341.591,142.176,341.973,142.346,342.347,142.526 M334.457,132.638c-0.031-0.169,0.037-0.34,0.174-0.442
			c1.181-0.87,1.857-2.199,1.857-3.647c0-2.507-2.041-4.549-4.549-4.549c-2.509,0-4.55,2.041-4.55,4.549
			c0,1.448,0.676,2.777,1.854,3.648c0.138,0.102,0.205,0.273,0.174,0.442c-0.031,0.168-0.155,0.303-0.32,0.349
			c-0.181,0.051-0.356,0.113-0.533,0.172c1.784,0.715,3.106,2.347,3.375,4.31c0.27-1.963,1.592-3.594,3.376-4.309
			c-0.178-0.059-0.355-0.122-0.537-0.173C334.612,132.941,334.488,132.806,334.457,132.638 M346.223,150.779
			c0.582,0.213,1.134,0.479,1.657,0.786c-0.106-0.841-0.313-1.657-0.607-2.432C347.04,149.743,346.688,150.301,346.223,150.779
			 M317.993,150.779c-0.576-0.593-0.981-1.313-1.195-2.097c-0.423,0.973-0.704,2.014-0.817,3.097
			C316.606,151.378,317.278,151.041,317.993,150.779 M339.854,142.3c-0.031-0.168,0.036-0.34,0.174-0.441
			c1.18-0.871,1.855-2.2,1.855-3.648c0-2.508-2.04-4.548-4.548-4.548c-2.509,0-4.552,2.04-4.552,4.548
			c0,1.448,0.677,2.777,1.856,3.648c0.138,0.102,0.204,0.273,0.174,0.441c-0.031,0.168-0.155,0.304-0.32,0.35
			c-0.433,0.12-0.859,0.271-1.279,0.449c1.92,0.491,3.342,2.228,3.342,4.3c0,1.467-0.719,2.756-1.815,3.564
			c0.793,0.219,1.545,0.537,2.242,0.936c0.678-0.455,1.413-0.834,2.197-1.12c-0.878-0.905-1.368-2.1-1.368-3.38
			c0-2.045,1.263-3.798,3.049-4.528c-0.227-0.08-0.453-0.156-0.687-0.221C340.009,142.604,339.884,142.47,339.854,142.3
			 M329.064,142.3c-0.031-0.168,0.036-0.34,0.174-0.441c1.18-0.871,1.856-2.2,1.856-3.648c0-2.508-2.041-4.548-4.549-4.548
			c-2.509,0-4.551,2.04-4.551,4.548c0,1.448,0.677,2.777,1.854,3.648c0.138,0.102,0.206,0.273,0.174,0.441
			c-0.03,0.168-0.155,0.304-0.32,0.35c-0.171,0.049-0.338,0.107-0.505,0.163c1.87,0.687,3.209,2.482,3.209,4.587
			c0,1.279-0.491,2.474-1.37,3.379c0.785,0.286,1.52,0.666,2.197,1.12c0.698-0.398,1.449-0.716,2.242-0.935
			c-1.095-0.809-1.811-2.098-1.811-3.564c0-1.994,1.312-3.682,3.122-4.245c-0.46-0.201-0.929-0.372-1.403-0.505
			C329.22,142.604,329.096,142.47,329.064,142.3 M323.709,151.045c-0.031-0.168,0.036-0.339,0.174-0.441
			c1.036-0.767,1.63-1.935,1.63-3.204c0-2.204-1.792-3.997-3.997-3.997c-2.204,0-3.996,1.793-3.996,3.997
			c0,1.269,0.594,2.437,1.631,3.204c0.137,0.102,0.204,0.273,0.173,0.441c-0.031,0.169-0.155,0.304-0.32,0.35
			c-3.911,1.084-6.687,4.585-6.878,8.604h10.153c0.141-3.125,1.735-5.862,4.127-7.565c-0.729-0.446-1.523-0.803-2.376-1.039
			C323.864,151.35,323.739,151.214,323.709,151.045 M345.212,151.396c-0.164-0.046-0.289-0.181-0.32-0.35s0.036-0.339,0.174-0.442
			c1.039-0.766,1.634-1.933,1.634-3.203c0-2.204-1.793-3.997-3.997-3.997c-2.203,0-3.996,1.793-3.996,3.997
			c0,1.269,0.594,2.437,1.629,3.204c0.137,0.102,0.204,0.273,0.174,0.441c-0.032,0.169-0.156,0.304-0.321,0.35
			c-0.852,0.236-1.646,0.593-2.376,1.039c2.394,1.703,3.988,4.44,4.129,7.565h10.152C351.9,155.979,349.125,152.479,345.212,151.396
			"/>
	</g>
	<text transform="matrix(1 0 0 1 246.085 159.959)" font-family="'GothamCondensed-Bold'" font-size="16">MEMBERSHIP</text>
	<text transform="matrix(1 0 0 1 246.085 168.3589)"><tspan x="0" y="0" font-family="'Trenda-Regular'" font-size="7">W</tspan><tspan x="6.265" y="0" font-family="'Trenda-Regular'" font-size="7">el</tspan><tspan x="11.585" y="0" font-family="'Trenda-Regular'" font-size="7">c</tspan><tspan x="14.875" y="0" font-family="'Trenda-Regular'" font-size="7">omes n</tspan><tspan x="37.743" y="0" font-family="'Trenda-Regular'" font-size="7">e</tspan><tspan x="41.411" y="0" font-family="'Trenda-Regular'" font-size="7">w membe</tspan><tspan x="72.673" y="0" font-family="'Trenda-Regular'" font-size="7">r</tspan><tspan x="75.074" y="0" font-family="'Trenda-Regular'" font-size="7">s</tspan></text>
	<text transform="matrix(1 0 0 1 246.085 176.7588)"><tspan x="0" y="0" font-family="'Trenda-Regular'" font-size="7">E</tspan><tspan x="4.228" y="0" font-family="'Trenda-Regular'" font-size="7">ngages </tspan><tspan x="29.231" y="0" font-family="'Trenda-Regular'" font-size="7">e</tspan><tspan x="32.864" y="0" font-family="'Trenda-Regular'" font-size="7">xi</tspan><tspan x="37.869" y="0" font-family="'Trenda-Regular'" font-size="7">s</tspan><tspan x="40.971" y="0" font-family="'Trenda-Regular'" font-size="7">ting membe</tspan><tspan x="79.407" y="0" font-family="'Trenda-Regular'" font-size="7">r</tspan><tspan x="81.808" y="0" font-family="'Trenda-Regular'" font-size="7">s</tspan></text>
	<text transform="matrix(1 0 0 1 246.085 185.1592)"><tspan x="0" y="0" font-family="'Trenda-Regular'" font-size="7">M</tspan><tspan x="6.181" y="0" font-family="'Trenda-Regular'" font-size="7">anages n</tspan><tspan x="35.23" y="0" font-family="'Trenda-Regular'" font-size="7">e</tspan><tspan x="38.892" y="0" font-family="'Trenda-Regular'" font-size="7">w</tspan><tspan x="44.239" y="0" font-family="'Trenda-Regular'" font-size="7">sl</tspan><tspan x="48.943" y="0" font-family="'Trenda-Regular'" font-size="7">e</tspan><tspan x="52.618" y="0" font-family="'Trenda-Regular'" font-size="7">t</tspan><tspan x="55.446" y="0" font-family="'Trenda-Regular'" font-size="7">t</tspan><tspan x="58.226" y="0" font-family="'Trenda-Regular'" font-size="7">e</tspan><tspan x="61.949" y="0" font-family="'Trenda-Regular'" font-size="7">r</tspan><tspan x="64.245" y="0" font-family="'Trenda-Regular'" font-size="7"> </tspan><tspan x="66.002" y="0" font-family="'Trenda-Regular'" font-size="7">c</tspan><tspan x="69.292" y="0" font-family="'Trenda-Regular'" font-size="7">o</tspan><tspan x="73.269" y="0" font-family="'Trenda-Regular'" font-size="7">n</tspan><tspan x="77.251" y="0" font-family="'Trenda-Regular'" font-size="7">t</tspan><tspan x="80.03" y="0" font-family="'Trenda-Regular'" font-size="7">e</tspan><tspan x="83.754" y="0" font-family="'Trenda-Regular'" font-size="7">n</tspan><tspan x="87.729" y="0" font-family="'Trenda-Regular'" font-size="7">t</tspan></text>
</g>
<g id="_x5F__x5F_social-media-website">
	<g>
		<defs>
			<rect id="SVGID_31_" x="-17" y="-16" width="396" height="396"/>
		</defs>
		<clipPath id="SVGID_32_">
			<use xlink:href="#SVGID_31_"  overflow="visible"/>
		</clipPath>
		<path clip-path="url(#SVGID_32_)" fill="none" stroke="#000000" stroke-width="3" d="M313.233,254.949
			c-2.935,0-5.358,2.43-5.358,5.436c0,0.384,0.064,0.767,0.128,1.15l-13.588,7.162c-0.956-0.703-2.104-1.151-3.316-1.151
			c-2.935,0-5.358,2.43-5.358,5.436c0,3.005,2.424,5.436,5.358,5.436c1.212,0,2.36-0.448,3.253-1.151l13.651,7.161
			c-0.064,0.384-0.128,0.704-0.128,1.088c0,3.005,2.424,5.435,5.358,5.435s5.358-2.43,5.358-5.435c0-2.941-2.424-5.372-5.358-5.372
			c-1.148,0-2.296,0.384-3.253,1.088l-13.651-7.162c0.128-0.384,0.128-0.703,0.128-1.087s0-0.703-0.128-1.087l13.715-7.162
			c0.894,0.704,2.041,1.087,3.189,1.087c2.935,0,5.358-2.43,5.358-5.435C318.592,257.379,316.168,254.949,313.233,254.949z"/>
	</g>
	<text transform="matrix(1 0 0 1 228.5186 231.7188)"><tspan x="0" y="0" font-family="'GothamCondensed-Bold'" font-size="16">S</tspan><tspan x="5.12" y="0" font-family="'GothamCondensed-Bold'" font-size="16">OCIAL MEDIA/WEBSITE</tspan></text>
	<text transform="matrix(1 0 0 1 228.5186 240.1182)"><tspan x="0" y="0" font-family="'Trenda-Regular'" font-size="7">A</tspan><tspan x="4.669" y="0" font-family="'Trenda-Regular'" font-size="7">dmini</tspan><tspan x="22.267" y="0" font-family="'Trenda-Regular'" font-size="7">s</tspan><tspan x="25.367" y="0" font-family="'Trenda-Regular'" font-size="7">t</tspan><tspan x="28.195" y="0" font-family="'Trenda-Regular'" font-size="7">r</tspan><tspan x="30.471" y="0" font-family="'Trenda-Regular'" font-size="7">ation </tspan><tspan x="48.782" y="0" font-family="'Trenda-Regular'" font-size="7">o</tspan><tspan x="52.717" y="0" font-family="'Trenda-Regular'" font-size="7">f</tspan><tspan x="55.055" y="0" font-family="'Trenda-Regular'" font-size="7"> social media</tspan></text>
	<text transform="matrix(1 0 0 1 228.5186 248.5186)"><tspan x="0" y="0" font-family="'Trenda-Regular'" font-size="7">D</tspan><tspan x="5.292" y="0" font-family="'Trenda-Regular'" font-size="7">epl</tspan><tspan x="14.742" y="0" font-family="'Trenda-Regular'" font-size="7">o</tspan><tspan x="18.634" y="0" font-family="'Trenda-Regular'" font-size="7">yme</tspan><tspan x="32.15" y="0" font-family="'Trenda-Regular'" font-size="7">n</tspan><tspan x="36.127" y="0" font-family="'Trenda-Regular'" font-size="7">t </tspan><tspan x="40.712" y="0" font-family="'Trenda-Regular'" font-size="7">o</tspan><tspan x="44.639" y="0" font-family="'Trenda-Regular'" font-size="7">f</tspan><tspan x="46.983" y="0" font-family="'Trenda-Regular'" font-size="7"> </tspan><tspan x="48.74" y="0" font-family="'Trenda-Regular'" font-size="7">s</tspan><tspan x="51.841" y="0" font-family="'Trenda-Regular'" font-size="7">t</tspan><tspan x="54.669" y="0" font-family="'Trenda-Regular'" font-size="7">r</tspan><tspan x="56.944" y="0" font-family="'Trenda-Regular'" font-size="7">a</tspan><tspan x="61.074" y="0" font-family="'Trenda-Regular'" font-size="7">t</tspan><tspan x="63.854" y="0" font-family="'Trenda-Regular'" font-size="7">egic messaging </tspan></text>
	<text transform="matrix(1 0 0 1 228.5186 256.918)"><tspan x="0" y="0" font-family="'Trenda-Regular'" font-size="7">W</tspan><tspan x="6.265" y="0" font-family="'Trenda-Regular'" font-size="7">ebsi</tspan><tspan x="18.809" y="0" font-family="'Trenda-Regular'" font-size="7">t</tspan><tspan x="21.588" y="0" font-family="'Trenda-Regular'" font-size="7">e manageme</tspan><tspan x="63.469" y="0" font-family="'Trenda-Regular'" font-size="7">n</tspan><tspan x="67.451" y="0" font-family="'Trenda-Regular'" font-size="7">t</tspan></text>
</g>
<g id="_x5F__x5F_creative">
	<g>
		<defs>
			<rect id="SVGID_33_" x="-17" y="-16" width="396" height="396"/>
		</defs>
		<clipPath id="SVGID_34_">
			<use xlink:href="#SVGID_33_"  overflow="visible"/>
		</clipPath>
		<path clip-path="url(#SVGID_34_)" fill="#010101" d="M250.491,332.322c0.309,0.594,0.595,1.252,0.861,1.965
			c0.502,1.332,0.892,2.129,1.742,2.323c1.712,0.391,2.908-1.088,3.71-3.205c1.069-2.822,1.55-5.787,1.358-8.675L250.491,332.322z"
			/>
		<path clip-path="url(#SVGID_34_)" fill="#010101" d="M239.28,335.786c-1.608-4.135,1.923-7.535,5.658-7.403l11.097-10.978
			c-0.337-0.604-0.712-1.192-1.129-1.765c-5.381-7.37-15.714-9.685-23.835-5.046l-0.002,0.002l-0.002,0.001
			c-8.121,4.64-11.263,14.651-7.502,22.947c2.646,5.832,8.235,9.462,14.598,10.51c2.256,0.371,4.146,0.084,4.66-1.577
			c0.255-0.826-0.247-1.56-1.162-2.654C240.481,338.412,239.761,337.02,239.28,335.786 M243.807,313.418
			c1.242-0.71,2.85-0.284,3.566,0.946c0.719,1.23,0.288,2.818-0.956,3.529c-1.242,0.71-2.85,0.286-3.566-0.945
			C242.132,315.718,242.562,314.129,243.807,313.418 M226.215,326.451c-0.72-1.229-0.289-2.819,0.955-3.529
			c1.245-0.711,2.85-0.285,3.568,0.946c0.717,1.23,0.287,2.817-0.956,3.53C228.538,328.107,226.933,327.684,226.215,326.451
			 M231.509,334.502c-1.245,0.711-2.849,0.285-3.568-0.946c-0.717-1.23-0.286-2.817,0.956-3.528
			c1.244-0.712,2.849-0.286,3.567,0.944C233.182,332.203,232.751,333.792,231.509,334.502 M232.686,320.675
			c-1.243,0.71-2.848,0.285-3.566-0.946c-0.72-1.23-0.289-2.818,0.957-3.529c1.241-0.71,2.848-0.285,3.564,0.945
			C234.359,318.376,233.93,319.964,232.686,320.675 M235.514,316.075c-0.719-1.23-0.288-2.818,0.956-3.529s2.849-0.284,3.568,0.946
			c0.717,1.23,0.286,2.818-0.956,3.529C237.838,317.731,236.233,317.306,235.514,316.075"/>
		<polygon clip-path="url(#SVGID_34_)" fill="#010101" points="260.948,314.709 244.386,331.097 246.963,333.647 263.525,317.259 		
			"/>
		<polygon clip-path="url(#SVGID_34_)" fill="#010101" points="243.562,331.912 241.196,336.804 246.14,334.462 244.851,333.188 		
			"/>
	</g>
	<text transform="matrix(1 0 0 1 179.4824 279.0352)"><tspan x="0" y="0" font-family="'GothamCondensed-Bold'" font-size="16">CRE</tspan><tspan x="17.023" y="0" font-family="'GothamCondensed-Bold'" font-size="16">A</tspan><tspan x="22.928" y="0" font-family="'GothamCondensed-Bold'" font-size="16">TIVE</tspan></text>
	<text transform="matrix(1 0 0 1 179.4824 287.4355)"><tspan x="0" y="0" font-family="'Trenda-Regular'" font-size="7">S</tspan><tspan x="3.878" y="0" font-family="'Trenda-Regular'" font-size="7">t</tspan><tspan x="6.706" y="0" font-family="'Trenda-Regular'" font-size="7">r</tspan><tspan x="8.974" y="0" font-family="'Trenda-Regular'" font-size="7">a</tspan><tspan x="13.104" y="0" font-family="'Trenda-Regular'" font-size="7">t</tspan><tspan x="15.883" y="0" font-family="'Trenda-Regular'" font-size="7">egic </tspan><tspan x="30.422" y="0" font-family="'Trenda-Regular'" font-size="7">c</tspan><tspan x="33.712" y="0" font-family="'Trenda-Regular'" font-size="7">o</tspan><tspan x="37.688" y="0" font-family="'Trenda-Regular'" font-size="7">n</tspan><tspan x="41.67" y="0" font-family="'Trenda-Regular'" font-size="7">t</tspan><tspan x="44.449" y="0" font-family="'Trenda-Regular'" font-size="7">e</tspan><tspan x="48.173" y="0" font-family="'Trenda-Regular'" font-size="7">n</tspan><tspan x="52.156" y="0" font-family="'Trenda-Regular'" font-size="7">t d</tspan><tspan x="60.871" y="0" font-family="'Trenda-Regular'" font-size="7">ev</tspan><tspan x="67.962" y="0" font-family="'Trenda-Regular'" font-size="7">elopme</tspan><tspan x="91.377" y="0" font-family="'Trenda-Regular'" font-size="7">n</tspan><tspan x="95.353" y="0" font-family="'Trenda-Regular'" font-size="7">t</tspan></text>
	<text transform="matrix(1 0 0 1 179.4824 295.835)"><tspan x="0" y="0" font-family="'Trenda-Regular'" font-size="7">D</tspan><tspan x="5.299" y="0" font-family="'Trenda-Regular'" font-size="7">esign</tspan><tspan x="21.875" y="0" font-family="'Trenda-Regular'" font-size="7">,</tspan><tspan x="23.261" y="0" font-family="'Trenda-Regular'" font-size="7"> ph</tspan><tspan x="33.187" y="0" font-family="'Trenda-Regular'" font-size="7">o</tspan><tspan x="37.1" y="0" font-family="'Trenda-Regular'" font-size="7">t</tspan><tspan x="39.878" y="0" font-family="'Trenda-Regular'" font-size="7">o</tspan><tspan x="43.764" y="0" font-family="'Trenda-Regular'" font-size="7">,</tspan><tspan x="45.149" y="0" font-family="'Trenda-Regular'" font-size="7"> </tspan><tspan x="46.836" y="0" font-family="'Trenda-Regular'" font-size="7">video</tspan></text>
	<text transform="matrix(1 0 0 1 179.4824 304.2354)"><tspan x="0" y="0" font-family="'Trenda-Regular'" font-size="7">Art</tspan><tspan x="9.981" y="0" font-family="'Trenda-Regular'" font-size="7">,</tspan><tspan x="11.368" y="0" font-family="'Trenda-Regular'" font-size="7"> music</tspan><tspan x="31.415" y="0" font-family="'Trenda-Regular'" font-size="7">,</tspan><tspan x="32.794" y="0" font-family="'Trenda-Regular'" font-size="7"> handc</tspan><tspan x="54.242" y="0" font-family="'Trenda-Regular'" font-size="7">r</tspan><tspan x="56.517" y="0" font-family="'Trenda-Regular'" font-size="7">afts</tspan></text>
</g>
<g id="_x5F__x5F_fundraising">
	<g>
		<defs>
			<rect id="SVGID_35_" x="-17" y="-16" width="396" height="396"/>
		</defs>
		<clipPath id="SVGID_36_">
			<use xlink:href="#SVGID_35_"  overflow="visible"/>
		</clipPath>
		<path clip-path="url(#SVGID_36_)" fill="#010101" d="M144.233,258.111c-5.087,0-9.211,4.124-9.211,9.211s4.124,9.211,9.211,9.211
			s9.21-4.124,9.21-9.211S149.32,258.111,144.233,258.111 M144.142,260.19c0.46-0.05,0.874,0.282,0.924,0.742
			c0.004,0.036,0.006,0.073,0.005,0.109v0.523c1.146,0.294,1.986,1.159,2.421,2.028c0.244,0.393,0.124,0.908-0.269,1.153
			c-0.392,0.244-0.909,0.124-1.153-0.269c-0.028-0.044-0.051-0.091-0.07-0.14c-0.303-0.606-0.971-1.203-1.766-1.203
			c-1.026,0-1.675,0.555-1.675,1.675c0,0.621,0.125,0.747,0.445,0.98c0.32,0.234,0.909,0.453,1.583,0.772
			c0.557,0.264,1.229,0.47,1.858,0.929c0.628,0.459,1.138,1.292,1.138,2.342c0,1.619-1.09,2.884-2.512,3.245v0.523
			c0.007,0.462-0.363,0.842-0.825,0.849c-0.463,0.007-0.843-0.363-0.85-0.825v-0.023v-0.523c-1.146-0.298-1.986-1.173-2.42-2.041
			c-0.245-0.393-0.124-0.909,0.268-1.154c0.393-0.244,0.909-0.124,1.153,0.269c0.028,0.044,0.052,0.091,0.07,0.14
			c0.303,0.605,0.971,1.217,1.767,1.217c1.025,0,1.674-0.555,1.674-1.675c0-0.622-0.124-0.761-0.445-0.994
			c-0.319-0.233-0.908-0.452-1.583-0.771c-0.556-0.265-1.229-0.471-1.858-0.93c-0.627-0.458-1.138-1.278-1.138-2.328
			c0-1.62,1.09-2.884,2.512-3.245v-0.523C143.387,260.607,143.71,260.239,144.142,260.19 M128.416,279.045
			c-2.005,0.034-5.727,0.28-9.302,1.675v10.009c2.991-0.562,5.791,0.15,8.792,1.295c9.058,3.75,15.381,1.903,23.445-1.256
			c4.519-1.635,3.239-5.598,0-5.024c-3.234,0.897-8.803,4.713-16.721,1.636c-1.751-0.692-2.521-3.582-0.444-3.729l5.024,0.418
			c3.3,0.028,3.277-3.759,0.418-4.187c-4.428-0.581-8.795-0.831-10.466-0.837C128.951,279.044,128.703,279.04,128.416,279.045"/>
	</g>
	<text transform="matrix(1 0 0 1 94.7217 315.9482)" font-family="'GothamCondensed-Bold'" font-size="16">FUNDRAISING</text>
	<text transform="matrix(1 0 0 1 94.7217 324.3477)"><tspan x="0" y="0" font-family="'Trenda-Regular'" font-size="7">F</tspan><tspan x="3.962" y="0" font-family="'Trenda-Regular'" font-size="7">und</tspan><tspan x="16.114" y="0" font-family="'Trenda-Regular'" font-size="7">r</tspan><tspan x="18.382" y="0" font-family="'Trenda-Regular'" font-size="7">aising</tspan></text>
	<text transform="matrix(1 0 0 1 94.7217 332.748)"><tspan x="0" y="0" font-family="'Trenda-Regular'" font-size="7">Financial </tspan><tspan x="30.233" y="0" font-family="'Trenda-Regular'" font-size="7">r</tspan><tspan x="32.5" y="0" font-family="'Trenda-Regular'" font-size="7">eporting</tspan></text>
</g>
<g id="_x5F__x5F_media">
	<g>
		<defs>
			<rect id="SVGID_37_" x="-17" y="-16" width="396" height="396"/>
		</defs>
		<clipPath id="SVGID_38_">
			<use xlink:href="#SVGID_37_"  overflow="visible"/>
		</clipPath>
		<path clip-path="url(#SVGID_38_)" d="M65.017,271.498c2.902-2.901,2.902-7.601,0-10.461l-1.511,1.512
			c2.043,2.043,2.043,5.394,0,7.478L65.017,271.498z M66.529,273.01l1.512,1.512c4.536-4.536,4.536-11.932,0-16.427l-1.512,1.512
			C70.248,263.243,70.248,269.291,66.529,273.01 M54.556,271.498l1.513-1.513c-2.044-2.043-2.044-5.435,0-7.478l-1.513-1.512
			C51.696,263.938,51.696,268.638,54.556,271.498 M50.062,256.542l-1.512-1.512c-6.17,6.17-6.17,16.263,0,22.434l1.512-1.512
			C44.709,270.64,44.709,261.895,50.062,256.542 M71.024,255.071l-1.512,1.471c5.353,5.353,5.353,14.098,0,19.45l1.512,1.513
			C77.195,271.293,77.195,261.241,71.024,255.071 M51.573,274.48l1.513-1.512c-3.719-3.719-3.719-9.767,0-13.445l-1.513-1.511
			C47.038,262.59,47.038,269.945,51.573,274.48 M68.94,290.172l-8.213-21.534c0.94-0.368,1.635-1.308,1.635-2.37
			c0-1.431-1.145-2.574-2.575-2.574c-1.43,0-2.574,1.144-2.574,2.574c0,1.103,0.694,2.002,1.634,2.37l-8.213,21.534
			c-0.123,0.327,0.041,0.694,0.368,0.817c0.081,0.041,0.163,0.041,0.204,0.041h0.041c0.081,0,0.122-0.041,0.204-0.082
			c0.041,0,0.041,0,0.082-0.041c0.04,0,0.04,0,0.081-0.041l7.192-5.721l-0.981-0.776l-5.23,4.209l2.901-7.642L68,290.907
			c0.123,0.082,0.245,0.123,0.368,0.123c0.082,0,0.163,0,0.204-0.041c0,0,0.041,0,0.041-0.041c0.082-0.041,0.123-0.082,0.205-0.163
			c0,0,0-0.041,0.041-0.041c0.04-0.041,0.04-0.082,0.081-0.164c0-0.04,0-0.081,0.041-0.081v-0.123c0-0.041,0-0.081-0.041-0.122
			V290.172z M55.946,279.711l3.841-10.052l3.841,10.052l-2.82,2.247l0.981,0.777l2.288-1.839l2.902,7.56L55.946,279.711z"/>
	</g>
	<text transform="matrix(1 0 0 1 26.3833 224.5303)" font-family="'GothamCondensed-Bold'" font-size="16">MEDIA</text>
	<text transform="matrix(1 0 0 1 26.3833 232.9297)"><tspan x="0" y="0" font-family="'Trenda-Regular'" font-size="7">M</tspan><tspan x="6.188" y="0" font-family="'Trenda-Regular'" font-size="7">edia </tspan><tspan x="21.511" y="0" font-family="'Trenda-Regular'" font-size="7">c</tspan><tspan x="24.794" y="0" font-family="'Trenda-Regular'" font-size="7">o</tspan><tspan x="28.77" y="0" font-family="'Trenda-Regular'" font-size="7">n</tspan><tspan x="32.752" y="0" font-family="'Trenda-Regular'" font-size="7">t</tspan><tspan x="35.532" y="0" font-family="'Trenda-Regular'" font-size="7">act &amp; p</tspan><tspan x="58.141" y="0" font-family="'Trenda-Regular'" font-size="7">r</tspan><tspan x="60.416" y="0" font-family="'Trenda-Regular'" font-size="7">ess </tspan><tspan x="72.113" y="0" font-family="'Trenda-Regular'" font-size="7">r</tspan><tspan x="74.381" y="0" font-family="'Trenda-Regular'" font-size="7">eleases</tspan></text>
	<text transform="matrix(1 0 0 1 26.3833 241.3301)"><tspan x="0" y="0" font-family="'Trenda-Regular'" font-size="7">C</tspan><tspan x="4.683" y="0" font-family="'Trenda-Regular'" font-size="7">ommuni</tspan><tspan x="30.792" y="0" font-family="'Trenda-Regular'" font-size="7">c</tspan><tspan x="34.076" y="0" font-family="'Trenda-Regular'" font-size="7">ation &amp; messaging</tspan></text>
	<text transform="matrix(1 0 0 1 26.3833 249.7295)"><tspan x="0" y="0" font-family="'Trenda-Regular'" font-size="7">B</tspan><tspan x="4.606" y="0" font-family="'Trenda-Regular'" font-size="7">logs &amp; writ</tspan><tspan x="37.841" y="0" font-family="'Trenda-Regular'" font-size="7">t</tspan><tspan x="40.621" y="0" font-family="'Trenda-Regular'" font-size="7">en </tspan><tspan x="50.14" y="0" font-family="'Trenda-Regular'" font-size="7">c</tspan><tspan x="53.43" y="0" font-family="'Trenda-Regular'" font-size="7">o</tspan><tspan x="57.406" y="0" font-family="'Trenda-Regular'" font-size="7">n</tspan><tspan x="61.382" y="0" font-family="'Trenda-Regular'" font-size="7">t</tspan><tspan x="64.161" y="0" font-family="'Trenda-Regular'" font-size="7">e</tspan><tspan x="67.885" y="0" font-family="'Trenda-Regular'" font-size="7">n</tspan><tspan x="71.861" y="0" font-family="'Trenda-Regular'" font-size="7">t</tspan></text>
</g>
<g id="_x5F__x5F_education-outreach">
	<g>
		<defs>
			<rect id="SVGID_39_" x="-17" y="-16" width="396" height="396"/>
		</defs>
		<clipPath id="SVGID_40_">
			<use xlink:href="#SVGID_39_"  overflow="visible"/>
		</clipPath>
		<path clip-path="url(#SVGID_40_)" d="M25.418,153.372c-1.896-1.518-0.505-5.686-0.505-5.686h-7.179l2.437,8.999
			c0.191,0.827,1.02,1.5,1.847,1.5h3C27.44,158.259,28.155,155.562,25.418,153.372"/>
		<path clip-path="url(#SVGID_40_)" d="M29.518,138.686v1.5c5.768,0,7.446-1.388,7.446-1.388l0.054-3.024
			C37.018,135.774,35.316,138.686,29.518,138.686"/>
		<path clip-path="url(#SVGID_40_)" d="M45.267,122.187c-1.029,0-2.001,0.632-2.874,1.733c-3.147,3.32-7.143,10.266-17.375,10.266
			h-7.5c-2.484,0-4.5,2.016-4.5,4.5v3c0,2.484,2.016,4.5,4.5,4.5h7.5c9.965,0,13.772,5.302,16.444,8.857
			c1.084,1.98,2.393,3.142,3.805,3.142c3.723,0,6.75-8.059,6.75-17.999S48.99,122.187,45.267,122.187 M17.518,140.186
			c0-2.98,2.23-3,2.23-3h5.27v3H17.518z M38.945,147.78c-2.528-2.089-5.984-3.909-10.927-4.438v-6.345
			c4.879-0.629,8.394-2.752,11.008-5.04c-0.312,2.32-0.509,5.046-0.509,8.229C38.517,143.084,38.679,145.601,38.945,147.78
			 M45.267,155.149c-0.953-0.562-2.874-4.093-3.525-10.463h1.275c2.484,0,4.5-2.016,4.5-4.5s-2.016-4.5-4.5-4.5h-1.275
			c0.651-6.37,2.572-9.901,3.525-10.464c1.158,0.684,3.75,5.74,3.75,14.964C49.017,149.409,46.425,154.465,45.267,155.149"/>
	</g>
	<text transform="matrix(1 0 0 1 15.5176 172.9355)"><tspan x="0" y="0" font-family="'GothamCondensed-Bold'" font-size="16">EDUC</tspan><tspan x="24.016" y="0" font-family="'GothamCondensed-Bold'" font-size="16">A</tspan><tspan x="29.903" y="0" font-family="'GothamCondensed-Bold'" font-size="16">TION</tspan><tspan x="51.823" y="0" font-family="'GothamCondensed-Bold'" font-size="16">/</tspan><tspan x="56.447" y="0" font-family="'GothamCondensed-Bold'" font-size="16">OUTRE</tspan><tspan x="86.654" y="0" font-family="'GothamCondensed-Bold'" font-size="16">A</tspan><tspan x="92.878" y="0" font-family="'GothamCondensed-Bold'" font-size="16">CH</tspan></text>
	<text transform="matrix(1 0 0 1 15.5176 181.3354)"><tspan x="0" y="0" font-family="'Trenda-Regular'" font-size="7">A</tspan><tspan x="4.669" y="0" font-family="'Trenda-Regular'" font-size="7">ctivism</tspan><tspan x="26.936" y="0" font-family="'Trenda-Regular'" font-size="7"> </tspan><tspan x="28.629" y="0" font-family="'Trenda-Regular'" font-size="7">t</tspan><tspan x="31.458" y="0" font-family="'Trenda-Regular'" font-size="7">r</tspan><tspan x="33.732" y="0" font-family="'Trenda-Regular'" font-size="7">aining</tspan></text>
	<text transform="matrix(1 0 0 1 15.5176 189.7354)"><tspan x="0" y="0" font-family="'Trenda-Regular'" font-size="7">S</tspan><tspan x="3.878" y="0" font-family="'Trenda-Regular'" font-size="7">t</tspan><tspan x="6.657" y="0" font-family="'Trenda-Regular'" font-size="7">ory</tspan><tspan x="16.618" y="0" font-family="'Trenda-Regular'" font-size="7">t</tspan><tspan x="19.396" y="0" font-family="'Trenda-Regular'" font-size="7">elling</tspan></text>
	<text transform="matrix(1 0 0 1 15.5176 198.1357)"><tspan x="0" y="0" font-family="'Trenda-Regular'" font-size="7">V</tspan><tspan x="4.228" y="0" font-family="'Trenda-Regular'" font-size="7">o</tspan><tspan x="8.148" y="0" font-family="'Trenda-Regular'" font-size="7">t</tspan><tspan x="10.927" y="0" font-family="'Trenda-Regular'" font-size="7">e</tspan><tspan x="14.651" y="0" font-family="'Trenda-Regular'" font-size="7">r</tspan><tspan x="16.947" y="0" font-family="'Trenda-Regular'" font-size="7"> </tspan><tspan x="18.704" y="0" font-family="'Trenda-Regular'" font-size="7">r</tspan><tspan x="20.979" y="0" font-family="'Trenda-Regular'" font-size="7">egi</tspan><tspan x="30.408" y="0" font-family="'Trenda-Regular'" font-size="7">s</tspan><tspan x="33.508" y="0" font-family="'Trenda-Regular'" font-size="7">t</tspan><tspan x="36.336" y="0" font-family="'Trenda-Regular'" font-size="7">r</tspan><tspan x="38.604" y="0" font-family="'Trenda-Regular'" font-size="7">ation</tspan></text>
</g>
<g id="_x5F__x5F_events">
	<g>
		<defs>
			<rect id="SVGID_41_" x="-17" y="-16" width="396" height="396"/>
		</defs>
		<clipPath id="SVGID_42_">
			<use xlink:href="#SVGID_41_"  overflow="visible"/>
		</clipPath>
		<path clip-path="url(#SVGID_42_)" d="M107.569,65.958c-0.184-1.332-0.781-2.664-1.746-3.72c-0.045-0.046-0.091-0.138-0.183-0.184
			c-0.092-0.092-0.184-0.137-0.23-0.229c0,0-0.046,0-0.046-0.046c-0.275-0.23-0.504-0.459-0.78-0.643
			c-0.322-0.23-0.689-0.413-1.056-0.551h-0.046c-0.046,0-0.092-0.046-0.138-0.046c-0.643-0.229-1.286-0.413-1.928-0.459h-0.047
			c-0.183-0.092-0.367-0.092-0.596-0.092c-0.23,0-0.459,0-0.643,0.046h-0.092c-0.184,0-0.322,0.046-0.505,0.092
			c-0.046,0-0.138,0.046-0.184,0.046c-0.137,0.046-0.321,0.092-0.459,0.138c-0.046,0-0.092,0.046-0.138,0.046
			c-0.183,0.045-0.321,0.091-0.505,0.183h-0.046c-0.091,0.046-0.184,0.092-0.276,0.138c-0.091,0.046-0.229,0.092-0.321,0.137
			c-0.092,0.046-0.183,0.092-0.275,0.184c-0.092,0.046-0.184,0.092-0.276,0.138l-0.045,0.046c-0.092,0.046-0.185,0.138-0.276,0.23
			c-0.092,0.046-0.184,0.137-0.23,0.183c-0.183,0.138-0.321,0.276-0.505,0.459c-0.137,0.138-0.322,0.322-0.459,0.506
			c-0.046,0.091-0.138,0.183-0.184,0.229c-0.092,0.092-0.138,0.184-0.229,0.275c-0.046,0.092-0.138,0.184-0.184,0.322
			c-0.046,0.092-0.092,0.184-0.183,0.276c-0.046,0.091-0.092,0.229-0.139,0.321l-0.137,0.275c-0.046,0.092-0.092,0.184-0.092,0.322
			c-0.046,0.092-0.092,0.23-0.092,0.321c-0.046,0.092-0.046,0.23-0.092,0.322c-0.046,0.091-0.046,0.229-0.092,0.321
			c-0.045,0.138-0.045,0.23-0.045,0.368c0,0.091-0.046,0.183-0.046,0.321c0,0.229-0.046,0.459-0.046,0.689
			c0,0.229,0,0.413,0.046,0.642c0,0.092,0,0.138,0.046,0.23c0,0.138,0.045,0.276,0.045,0.414c0,0.091,0.046,0.183,0.046,0.275
			c0.046,0.092,0.046,0.184,0.092,0.321c0.046,0.092,0.046,0.23,0.092,0.322s0.046,0.138,0.092,0.23
			c0.046,0.137,0.092,0.275,0.137,0.367v0.046c0.276,0.643,0.689,1.285,1.194,1.837c0,0,0,0.045,0.047,0.045
			c0.091,0.092,0.137,0.184,0.229,0.23c0.046,0.046,0.138,0.092,0.184,0.183c0.275,0.276,0.551,0.506,0.872,0.689
			c0.367,0.23,0.781,0.459,1.194,0.643c0.184,0.092,0.413,0.138,0.597,0.23c0.046,0,0.092,0,0.092,0.046
			c0.137,0.046,0.321,0.092,0.459,0.092c0.046,0,0.092,0,0.138,0.046c0.183,0.046,0.367,0.046,0.551,0.091h0.045
			c0.23,0,0.46,0.046,0.644,0.046c0.183,0,0.459,0,0.643-0.046h0.091c0.184,0,0.322-0.045,0.505-0.091
			c0.046,0,0.138-0.046,0.184-0.046s0.092,0,0.138-0.046c0.091-0.046,0.184-0.046,0.275-0.092c0.046,0,0.092-0.046,0.138-0.046
			c0.184-0.046,0.321-0.092,0.505-0.184h0.046l0.275-0.138c0.093-0.046,0.23-0.091,0.322-0.137c0.092-0.046,0.184-0.092,0.275-0.184
			l0.276-0.138l0.046-0.046c0.092-0.045,0.183-0.137,0.276-0.229c0.091-0.046,0.183-0.138,0.229-0.184
			c0.184-0.138,0.321-0.276,0.505-0.459c0.138-0.138,0.321-0.321,0.46-0.505c0.045-0.092,0.137-0.184,0.183-0.23
			c0.092-0.092,0.138-0.184,0.23-0.275c0.045-0.092,0.137-0.184,0.183-0.322c0.046-0.091,0.092-0.183,0.184-0.275
			c0.046-0.092,0.092-0.23,0.137-0.322c0.046-0.092,0.092-0.183,0.139-0.275c0.046-0.092,0.091-0.184,0.091-0.321
			c0.046-0.092,0.092-0.23,0.092-0.322c0.046-0.092,0.046-0.23,0.092-0.322c0.046-0.091,0.046-0.229,0.092-0.321
			c0.046-0.138,0.046-0.229,0.046-0.367c0-0.092,0.046-0.184,0.046-0.322c0.046-0.459,0.046-0.918,0-1.331
			C107.614,66.141,107.614,66.049,107.569,65.958 M103.987,67.335h-2.755v2.755h-0.918v-2.755h-2.756v-0.918h2.756v-2.755h0.918
			v2.755h2.755V67.335z"/>
		<path clip-path="url(#SVGID_42_)" d="M94.804,42.08h-8.541H85.62h-0.918h-0.919h-0.918h-0.643h-0.275
			c0,0.321,0.045,0.643,0.091,0.918H94.85C94.804,42.723,94.804,42.401,94.804,42.08"/>
		<path clip-path="url(#SVGID_42_)" d="M82.406,38.866c0.551,0,1.102,0.918,1.332,2.296h0.918c-0.23-1.883-1.102-3.214-2.25-3.214
			c-1.332,0-2.296,1.791-2.296,4.132c0,0.322,0,0.643,0.046,0.918c0.229,1.883,1.102,3.215,2.25,3.215v-0.919
			c-0.551,0-1.102-0.918-1.332-2.296c-0.046-0.275-0.046-0.596-0.046-0.918C81.028,40.243,81.763,38.866,82.406,38.866"/>
		<path clip-path="url(#SVGID_42_)" d="M98.018,38.866c0.551,0,1.102,0.918,1.332,2.296h0.918c-0.229-1.883-1.102-3.214-2.25-3.214
			c-1.332,0-2.296,1.791-2.296,4.132c0,0.322,0,0.643,0.046,0.918c0.23,1.883,1.102,3.215,2.25,3.215v-0.919
			c-0.551,0-1.102-0.918-1.332-2.296c-0.045-0.275-0.045-0.596-0.045-0.918C96.641,40.243,97.375,38.866,98.018,38.866"/>
		<path clip-path="url(#SVGID_42_)" d="M84.702,54.019c0.761,0,1.377,0.617,1.377,1.377c0,0.762-0.616,1.378-1.377,1.378
			c-0.761,0-1.378-0.616-1.378-1.378C83.324,54.636,83.941,54.019,84.702,54.019"/>
		<path clip-path="url(#SVGID_42_)" d="M94.804,54.019c0.761,0,1.377,0.617,1.377,1.377c0,0.762-0.616,1.378-1.377,1.378
			c-0.761,0-1.378-0.616-1.378-1.378C93.426,54.636,94.042,54.019,94.804,54.019"/>
		<path clip-path="url(#SVGID_42_)" d="M99.854,54.019c0.761,0,1.377,0.617,1.377,1.377c0,0.762-0.616,1.378-1.377,1.378
			s-1.377-0.616-1.377-1.378C98.478,54.636,99.093,54.019,99.854,54.019"/>
		<path clip-path="url(#SVGID_42_)" d="M89.752,54.019c0.761,0,1.377,0.617,1.377,1.377c0,0.762-0.616,1.378-1.377,1.378
			c-0.761,0-1.377-0.616-1.377-1.378C88.375,54.636,88.991,54.019,89.752,54.019"/>
		<path clip-path="url(#SVGID_42_)" d="M79.65,59.07c0.761,0,1.377,0.617,1.377,1.377c0,0.761-0.616,1.378-1.377,1.378
			s-1.377-0.617-1.377-1.378C78.273,59.687,78.889,59.07,79.65,59.07"/>
		<path clip-path="url(#SVGID_42_)" d="M84.702,59.07c0.761,0,1.377,0.617,1.377,1.377c0,0.761-0.616,1.378-1.377,1.378
			c-0.761,0-1.378-0.617-1.378-1.378C83.324,59.687,83.941,59.07,84.702,59.07"/>
		<path clip-path="url(#SVGID_42_)" d="M89.752,59.07c0.761,0,1.377,0.617,1.377,1.377c0,0.761-0.616,1.378-1.377,1.378
			c-0.761,0-1.377-0.617-1.377-1.378C88.375,59.687,88.991,59.07,89.752,59.07"/>
		<path clip-path="url(#SVGID_42_)" d="M79.65,64.121c0.761,0,1.377,0.617,1.377,1.377c0,0.762-0.616,1.378-1.377,1.378
			s-1.377-0.616-1.377-1.378C78.273,64.738,78.889,64.121,79.65,64.121"/>
		<path clip-path="url(#SVGID_42_)" d="M84.702,64.121c0.761,0,1.377,0.617,1.377,1.377c0,0.762-0.616,1.378-1.377,1.378
			c-0.761,0-1.378-0.616-1.378-1.378C83.324,64.738,83.941,64.121,84.702,64.121"/>
		<path clip-path="url(#SVGID_42_)" d="M89.752,64.121c0.761,0,1.377,0.617,1.377,1.377c0,0.762-0.616,1.378-1.377,1.378
			c-0.761,0-1.377-0.616-1.377-1.378C88.375,64.738,88.991,64.121,89.752,64.121"/>
		<path clip-path="url(#SVGID_42_)" d="M75.518,71.008c-0.505,0-0.918-0.413-0.918-0.918V49.886h30.306v9.321
			c0.321,0.184,0.643,0.367,0.918,0.597V43.917c0-1.01-0.826-1.836-1.836-1.836h-2.113h-0.643h-0.918h-0.918h-0.919h-0.643h-0.275
			c0,0.321,0.046,0.642,0.092,0.918h6.337c0.505,0,0.918,0.413,0.918,0.918v5.051H74.6v-5.051c0-0.505,0.413-0.918,0.918-0.918h3.72
			c-0.046-0.276-0.046-0.597-0.046-0.918h-3.674c-1.01,0-1.836,0.826-1.836,1.836V70.09c0,1.01,0.826,1.836,1.836,1.836h18.138
			c-0.23-0.275-0.413-0.596-0.597-0.918H75.518z"/>
	</g>
	<text id="EVENTS" transform="matrix(1 0 0 1 47.2114 85.917)" font-family="'GothamCondensed-Bold'" font-size="16">EVENTS</text>
	<text transform="matrix(1 0 0 1 47.2114 94.3169)"><tspan x="0" y="0" font-family="'Trenda-Regular'" font-size="7">L</tspan><tspan x="3.885" y="0" font-family="'Trenda-Regular'" font-size="7">ogi</tspan><tspan x="13.566" y="0" font-family="'Trenda-Regular'" font-size="7">s</tspan><tspan x="16.667" y="0" font-family="'Trenda-Regular'" font-size="7">tics </tspan><tspan x="29.294" y="0" font-family="'Trenda-Regular'" font-size="7">f</tspan><tspan x="31.653" y="0" font-family="'Trenda-Regular'" font-size="7">o</tspan><tspan x="35.629" y="0" font-family="'Trenda-Regular'" font-size="7">r</tspan><tspan x="37.925" y="0" font-family="'Trenda-Regular'" font-size="7"> gene</tspan><tspan x="55.292" y="0" font-family="'Trenda-Regular'" font-size="7">r</tspan><tspan x="57.56" y="0" font-family="'Trenda-Regular'" font-size="7">al me</tspan><tspan x="75.032" y="0" font-family="'Trenda-Regular'" font-size="7">e</tspan><tspan x="78.714" y="0" font-family="'Trenda-Regular'" font-size="7">ting</tspan></text>
	<text transform="matrix(1 0 0 1 47.2114 102.7168)"><tspan x="0" y="0" font-family="'Trenda-Regular'" font-size="7">L</tspan><tspan x="3.885" y="0" font-family="'Trenda-Regular'" font-size="7">ogi</tspan><tspan x="13.566" y="0" font-family="'Trenda-Regular'" font-size="7">s</tspan><tspan x="16.667" y="0" font-family="'Trenda-Regular'" font-size="7">tics </tspan><tspan x="29.294" y="0" font-family="'Trenda-Regular'" font-size="7">f</tspan><tspan x="31.653" y="0" font-family="'Trenda-Regular'" font-size="7">o</tspan><tspan x="35.629" y="0" font-family="'Trenda-Regular'" font-size="7">r</tspan><tspan x="37.925" y="0" font-family="'Trenda-Regular'" font-size="7"> </tspan><tspan x="39.682" y="0" font-family="'Trenda-Regular'" font-size="7">I</tspan><tspan x="41.586" y="0" font-family="'Trenda-Regular'" font-size="7">ndivisible</tspan><tspan x="70.608" y="0" font-family="'Trenda-Regular'" font-size="7"> </tspan><tspan x="72.155" y="0" font-family="'Trenda-Regular'" font-size="7">T</tspan><tspan x="75.557" y="0" font-family="'Trenda-Regular'" font-size="7">a</tspan><tspan x="79.687" y="0" font-family="'Trenda-Regular'" font-size="7">c</tspan><tspan x="82.977" y="0" font-family="'Trenda-Regular'" font-size="7">oma </tspan><tspan x="99.104" y="0" font-family="'Trenda-Regular'" font-size="7">e</tspan><tspan x="102.744" y="0" font-family="'Trenda-Regular'" font-size="7">v</tspan><tspan x="106.202" y="0" font-family="'Trenda-Regular'" font-size="7">e</tspan><tspan x="109.926" y="0" font-family="'Trenda-Regular'" font-size="7">n</tspan><tspan x="113.909" y="0" font-family="'Trenda-Regular'" font-size="7">ts</tspan></text>
	<text transform="matrix(1 0 0 1 47.2114 111.1167)"><tspan x="0" y="0" font-family="'Trenda-Regular'" font-size="7">C</tspan><tspan x="4.683" y="0" font-family="'Trenda-Regular'" font-size="7">oo</tspan><tspan x="12.635" y="0" font-family="'Trenda-Regular'" font-size="7">r</tspan><tspan x="14.903" y="0" font-family="'Trenda-Regular'" font-size="7">dina</tspan><tspan x="28.784" y="0" font-family="'Trenda-Regular'" font-size="7">t</tspan><tspan x="31.562" y="0" font-family="'Trenda-Regular'" font-size="7">es</tspan><tspan x="38.395" y="0" font-family="'Trenda-Regular'" font-size="7"> </tspan><tspan x="40.082" y="0" font-family="'Trenda-Regular'" font-size="7">visits</tspan><tspan x="55.838" y="0" font-family="'Trenda-Regular'" font-size="7"> </tspan><tspan x="57.525" y="0" font-family="'Trenda-Regular'" font-size="7">t</tspan><tspan x="60.304" y="0" font-family="'Trenda-Regular'" font-size="7">o MOCs </tspan><tspan x="87.66" y="0" font-family="'Trenda-Regular'" font-size="7">o</tspan><tspan x="91.594" y="0" font-family="'Trenda-Regular'" font-size="7">f</tspan><tspan x="98.229" y="0" font-family="'Trenda-Regular'" font-size="7">c</tspan><tspan x="101.512" y="0" font-family="'Trenda-Regular'" font-size="7">es</tspan></text>
</g>
</svg>
