<?xml version="1.0" encoding="utf-8"?>
<!-- Generator: Adobe Illustrator 18.1.1, SVG Export Plug-In . SVG Version: 6.00 Build 0)  -->
<svg version="1.1" id="Layer_1" xmlns="http://www.w3.org/2000/svg" xmlns:xlink="http://www.w3.org/1999/xlink" x="0px" y="0px"
	 viewBox="737.5 0 262.5 200" enable-background="new 737.5 0 262.5 200" xml:space="preserve">
<g>
	<g>
		<g>
			<defs>
				<path id="SVGID_1_" d="M922,61.8c-2.2,0-4,1.8-4,4v95.1c0,2.2,1.8,4,4,4h70.8c2.2,0,4-1.8,4-4v-15.4c0-2.2-1.8-4-4-4h-45.9
					c-2.2,0-4-1.8-4-4v-9.1c0-2.2,1.8-4,4-4H988c2.2,0,4-1.8,4-4v-14.2c0-2.2-1.8-4-4-4h-41.1c-2.2,0-4-1.8-4-4v-9.1
					c0-2.2,1.8-4,4-4h45.5c2.2,0,4-1.8,4-4V65.8c0-2.2-1.8-4-4-4L922,61.8z"/>
			</defs>
			<clipPath id="SVGID_2_">
				<use xlink:href="#SVGID_1_"  overflow="visible"/>
			</clipPath>
			<rect x="918" y="61.8" clip-path="url(#SVGID_2_)" fill="#0095A2" width="78.8" height="103.1"/>
		</g>
	</g>
</g>
<g>
	<g>
		<g>
			<defs>
				<rect id="SVGID_3_" x="737.5" y="2.2" width="272.9" height="196.8"/>
			</defs>
			<clipPath id="SVGID_4_">
				<use xlink:href="#SVGID_3_"  overflow="visible"/>
			</clipPath>
			<path clip-path="url(#SVGID_4_)" fill="none" stroke="#FFFFFF" stroke-width="1.277" stroke-miterlimit="10" d="M992.8,164.9H922
				c-2.2,0-4-1.8-4-4V65.8c0-2.2,1.8-4,4-4h70.4c2.2,0,4,1.8,4,4v15.4c0,2.2-1.8,4-4,4H947c-2.2,0-4,1.8-4,4v9.1c0,2.2,1.8,4,4,4
				h41.1c2.2,0,4,1.8,4,4v14.2c0,2.2-1.8,4-4,4H947c-2.2,0-4,1.8-4,4v9.1c0,2.2,1.8,4,4,4H993c2.2,0,4,1.8,4,4V161
				C996.8,163.1,995,164.9,992.8,164.9z"/>
		</g>
	</g>
</g>
<g>
	<g>
		<g>
			<defs>
				<path id="SVGID_5_" d="M912.5,3.6l-10.5,7c-0.3,0.2-0.4,0.5-0.4,0.8V119c0,1-1.2,1.4-1.8,0.6l-44.6-55.4
					c-6.6-9.3-12.1-8.3-12.1-8.3s-9.7,0.5-10.3,8.1v102.5c0,0.6,0.6,0.8,1.3,0.9h0.6c0.1,0,0.1,0,0.2,0h3.4h17.9
					c0.3-0.1,0.5-0.3,0.5-0.8v-59.1c0-0.9,1.1-1.4,1.8-0.6l46.7,54c0,0,3.8,6.2,12.5,4.6c6.8-1.3,7.7-8.4,7.7-8.4V11.4
					c0-0.4-0.2-0.7-0.5-0.9l-11.2-7c-0.2-0.1-0.4-0.1-0.5-0.1C913,3.4,912.8,3.5,912.5,3.6"/>
			</defs>
			<clipPath id="SVGID_6_">
				<use xlink:href="#SVGID_5_"  overflow="visible"/>
			</clipPath>
			<polygon clip-path="url(#SVGID_6_)" fill="#F47354" points="925.5,3.4 925.3,167.5 832.8,167.5 833,3.4 			"/>
		</g>
	</g>
</g>
<g>
	<g>
		<g>
			<defs>
				<rect id="SVGID_7_" x="737.5" y="2.2" width="272.9" height="196.8"/>
			</defs>
			<clipPath id="SVGID_8_">
				<use xlink:href="#SVGID_7_"  overflow="visible"/>
			</clipPath>
			<path clip-path="url(#SVGID_8_)" fill="none" stroke="#FFFFFF" stroke-width="1.703" stroke-miterlimit="10" d="M835,167.3
				c-0.9,0.1-2,0-2-0.8V64c0.5-7.7,10.3-8.2,10.3-8.2s5.5-1,12.1,8.3l44.6,55.4c0.6,0.8,1.8,0.3,1.8-0.6V11.3c0-0.3,0.2-0.6,0.4-0.8
				l10.5-6.9c0.3-0.2,0.8-0.2,1.1,0l11.2,7c0.3,0.2,0.5,0.5,0.5,0.9V157c0,0-0.9,7.1-7.7,8.4c-8.7,1.6-12.5-4.6-12.5-4.6l-46.7-54
				c-0.6-0.7-1.8-0.3-1.8,0.6v59.1c0,0.8-0.5,0.9-1.5,0.9L835,167.3z"/>
		</g>
	</g>
</g>
<g>
	<g>
		<g>
			<defs>
				<path id="SVGID_9_" d="M762.8,112.5c0-16.6,12-28.9,27.7-28.9c15.8,0,27.7,12.3,27.7,28.9c0,16.5-12,28.6-27.7,28.6
					C774.8,141.1,762.8,129,762.8,112.5 M739,112.5c0,28.2,22.7,50.4,51.6,50.4c28.9,0,51.6-22.3,51.6-50.4
					c0-28.3-22.7-50.7-51.6-50.7C761.8,61.8,739,84.2,739,112.5"/>
			</defs>
			<clipPath id="SVGID_10_">
				<use xlink:href="#SVGID_9_"  overflow="visible"/>
			</clipPath>
			<rect x="739.1" y="61.8" clip-path="url(#SVGID_10_)" fill="#0095A2" width="103.2" height="101.1"/>
		</g>
	</g>
</g>
<g>
	<g>
		<g>
			<defs>
				<rect id="SVGID_11_" x="737.5" y="2.2" width="272.9" height="196.8"/>
			</defs>
			<clipPath id="SVGID_12_">
				<use xlink:href="#SVGID_11_"  overflow="visible"/>
			</clipPath>
			<path clip-path="url(#SVGID_12_)" fill="none" stroke="#FFFFFF" stroke-width="1.703" stroke-miterlimit="10" d="M818.3,112.5
				c0-16.6-12-28.9-27.7-28.9c-15.7,0-27.7,12.3-27.7,28.9c0,16.5,12,28.6,27.7,28.6C806.3,141.1,818.3,129,818.3,112.5z
				 M842.2,112.5c0,28.2-22.7,50.4-51.6,50.4s-51.6-22.3-51.6-50.4c0-28.3,22.7-50.7,51.6-50.7S842.2,84.2,842.2,112.5z"/>
		</g>
	</g>
	<g>
		<g>
			<defs>
				<rect id="SVGID_13_" x="737.5" y="2.2" width="272.9" height="196.8"/>
			</defs>
			<clipPath id="SVGID_14_">
				<use xlink:href="#SVGID_13_"  overflow="visible"/>
			</clipPath>
			<path clip-path="url(#SVGID_14_)" fill="#FFFFFF" d="M926.8,124.6H737.7v-21.8h189.1l7.3,10.3c0.4,0.5,0.4,1.3,0,1.8L926.8,124.6
				z"/>
		</g>
	</g>
	<g>
		<g>
			<defs>
				<rect id="SVGID_15_" x="737.5" y="2.2" width="272.9" height="196.8"/>
			</defs>
			<clipPath id="SVGID_16_">
				<use xlink:href="#SVGID_15_"  overflow="visible"/>
			</clipPath>
			
				<path clip-path="url(#SVGID_16_)" fill="none" stroke="#FFFFFF" stroke-width="0.284" stroke-linecap="round" stroke-linejoin="round" stroke-miterlimit="10" d="
				M926.8,124.6H737.7v-21.8h189.1l7.3,10.3c0.4,0.5,0.4,1.3,0,1.8L926.8,124.6z"/>
		</g>
	</g>
	<g>
		<g>
			<defs>
				<rect id="SVGID_17_" x="737.5" y="2.2" width="272.9" height="196.8"/>
			</defs>
			<clipPath id="SVGID_18_">
				<use xlink:href="#SVGID_17_"  overflow="visible"/>
			</clipPath>
			<path clip-path="url(#SVGID_18_)" fill="#6E6E70" d="M778,116.7c-0.7,3.7-3.6,5.8-7.4,5.8c-4.3,0-7.8-3.3-7.8-7.6
				c0-4.3,3.4-7.6,7.8-7.6c3.6,0,6.7,2.2,7.4,5.6l-3.5,0.8c-0.5-2.1-1.9-3.2-3.8-3.2c-2.3,0-4.2,1.9-4.2,4.3c0,2.5,1.9,4.4,4.2,4.4
				c1.9,0,3.3-1,3.8-3.2L778,116.7z"/>
		</g>
	</g>
</g>
<polygon fill="#6E6E70" points="791.5,122.2 780,122.2 780,107.5 791.5,107.5 791.5,110.6 783.7,110.6 783.7,113.4 790.8,113.4 
	790.8,116.3 783.7,116.3 783.7,119 791.5,119 "/>
<polygon fill="#6E6E70" points="807.8,122.2 804.8,122.2 797.3,113.7 797.3,122.2 793.8,122.2 793.8,107.5 796.8,107.5 804.2,116.2 
	804.2,107.5 807.8,107.5 "/>
<polygon fill="#6E6E70" points="817.8,110.6 817.8,122.2 814.2,122.2 814.2,110.6 809.5,110.6 809.5,107.5 822.5,107.5 822.5,110.6 
	"/>
<polygon fill="#6E6E70" points="835.7,122.2 824.3,122.2 824.3,107.5 835.5,107.5 835.5,110.6 827.8,110.6 827.8,113.4 835,113.4 
	835,116.3 827.8,116.3 827.8,119 835.7,119 "/>
<g>
	<g>
		<g>
			<defs>
				<rect id="SVGID_19_" x="737.5" y="2.2" width="272.9" height="196.8"/>
			</defs>
			<clipPath id="SVGID_20_">
				<use xlink:href="#SVGID_19_"  overflow="visible"/>
			</clipPath>
			<path clip-path="url(#SVGID_20_)" fill="#6E6E70" d="M845,114.1c1.3,0,2.1-0.7,2.1-1.8c0-1-0.8-1.8-2.1-1.8h-3.4v3.5h3.4V114.1z
				 M847,122.2l-4.4-5h-1v5H838v-14.7h7.4c3.2,0,5.3,1.9,5.3,4.8c0,2.4-1.5,4.1-3.8,4.7l4.6,5.2H847z"/>
		</g>
	</g>
	<g>
		<g>
			<defs>
				<rect id="SVGID_21_" x="737.5" y="2.2" width="272.9" height="196.8"/>
			</defs>
			<clipPath id="SVGID_22_">
				<use xlink:href="#SVGID_21_"  overflow="visible"/>
			</clipPath>
			<path clip-path="url(#SVGID_22_)" fill="#6E6E70" d="M872.5,116.7c-0.7,3.7-3.6,5.8-7.4,5.8c-4.3,0-7.8-3.3-7.8-7.6
				c0-4.3,3.4-7.6,7.8-7.6c3.6,0,6.7,2.2,7.4,5.6l-3.5,0.8c-0.5-2.1-1.9-3.2-3.8-3.2c-2.3,0-4.2,1.9-4.2,4.3c0,2.5,1.9,4.4,4.2,4.4
				c1.9,0,3.3-1,3.8-3.2L872.5,116.7z"/>
		</g>
	</g>
</g>
<rect x="874.5" y="107.5" fill="#6E6E70" width="3.6" height="14.7"/>
<polygon fill="#6E6E70" points="888.2,110.6 888.2,122.2 884.5,122.2 884.5,110.6 879.8,110.6 879.8,107.5 893,107.5 893,110.6 "/>
<polygon fill="#6E6E70" points="902.8,122.2 899.2,122.2 899.2,117.6 893.5,107.5 897.5,107.5 901,113.9 904.7,107.5 908.7,107.5 
	902.8,117.6 "/>
<path fill="#6D6E70" d="M998.3,186.9h-6.9c0.1-0.4,0.3-0.8,0.5-1.1c0.7-1.1,1.7-1.7,3-1.7c0.8,0,1.6,0.3,2.2,0.8
	S998.2,186.1,998.3,186.9 M1000,187.4c0-1.3-0.5-2.5-1.5-3.5s-2.2-1.4-3.5-1.4c-1.4,0-2.6,0.5-3.6,1.5s-1.5,2.2-1.5,3.6
	c0,1.4,0.5,2.6,1.5,3.6c0.5,0.5,1,0.8,1.6,1.1s1.4,0.4,2.2,0.4c0.9,0,1.7-0.3,2.5-0.8s1.5-1.3,1.9-2.2h-1.8
	c-0.4,0.5-0.8,0.8-1.3,1.1s-1,0.4-1.6,0.4c-0.8,0-1.6-0.3-2.3-0.8s-1.1-1.2-1.2-2.1h8.6L1000,187.4L1000,187.4z M988.2,186.2
	c-0.3-1.1-0.9-2-1.8-2.7c-0.9-0.7-1.9-1-3-1c-1.4,0-2.6,0.5-3.5,1.5c-1,1-1.4,2.2-1.4,3.6s0.5,2.6,1.4,3.6c0.4,0.5,1,0.8,1.6,1.1
	s1.2,0.4,1.8,0.4s1.2-0.1,1.6-0.3c1.6-0.5,2.6-1.6,3.2-3.2h-1.8c-0.3,0.5-0.7,1-1.2,1.3s-1.1,0.5-1.7,0.5c-1,0-1.8-0.4-2.4-1
	c-0.6-0.7-1-1.5-1-2.4s0.3-1.8,1-2.4c0.3-0.3,0.6-0.6,1.1-0.8s0.9-0.3,1.5-0.3s1.1,0.2,1.7,0.6c0.6,0.4,1,0.9,1.3,1.5L988.2,186.2
	L988.2,186.2z M974.5,192.5h1.5v-6.1c0-1.1-0.3-2-0.9-2.8c-0.3-0.4-0.6-0.6-1.1-0.8c-0.4-0.2-1-0.3-1.7-0.3s-1.3,0.2-1.8,0.5
	c-0.5,0.4-0.9,0.8-1.3,1.3v-1.7h-1.5v9.8h1.5v-4.1c0-1.3,0.2-2.2,0.7-3c0.3-0.4,0.6-0.8,1-1c0.4-0.3,1-0.4,1.6-0.4
	c0.7,0,1.1,0.2,1.4,0.7c0.3,0.5,0.4,1,0.4,1.6L974.5,192.5L974.5,192.5z M964,186.9H957c0.1-0.4,0.3-0.8,0.5-1.1
	c0.7-1.1,1.7-1.7,3-1.7c0.8,0,1.6,0.3,2.2,0.8C963.3,185.4,963.8,186.1,964,186.9 M965.5,187.4c0-1.3-0.5-2.5-1.5-3.5
	s-2.2-1.4-3.5-1.4c-1.4,0-2.6,0.5-3.6,1.5s-1.5,2.2-1.5,3.6c0,1.4,0.5,2.6,1.5,3.6c0.5,0.5,1,0.8,1.6,1.1s1.4,0.4,2.2,0.4
	s1.7-0.3,2.5-0.8s1.5-1.3,1.9-2.2h-1.8c-0.3,0.5-0.8,0.8-1.3,1.1s-1,0.4-1.6,0.4c-0.8,0-1.6-0.3-2.3-0.8s-1.1-1.2-1.2-2.1h8.6
	L965.5,187.4L965.5,187.4z M953,182.8h-1.5v9.8h1.5V182.8z M953,179.4c-0.2-0.2-0.4-0.3-0.7-0.3s-0.5,0.1-0.7,0.3s-0.3,0.4-0.3,0.7
	s0.1,0.5,0.3,0.7s0.4,0.3,0.7,0.3s0.5-0.1,0.7-0.3s0.3-0.4,0.3-0.7C953.2,179.8,953,179.6,953,179.4 M949.7,184.8v-2
	c-0.3-0.1-0.6-0.2-1-0.2c-1.1,0-1.9,0.6-2.4,1.8l-0.1,0.4v-2h-1.5v9.8h1.5v-4.9c0-0.8,0.2-1.5,0.5-2.2c0.2-0.3,0.4-0.6,0.7-0.9
	c0.3-0.2,0.6-0.4,1-0.4C949,184.3,949.3,184.4,949.7,184.8 M940.8,186.9h-6.9c0.1-0.4,0.3-0.8,0.5-1.1c0.7-1.1,1.7-1.7,3-1.7
	c0.8,0,1.6,0.3,2.2,0.8S940.5,186.1,940.8,186.9 M942.3,187.4c0-1.3-0.5-2.5-1.5-3.5s-2.2-1.4-3.5-1.4c-1.4,0-2.6,0.5-3.6,1.5
	s-1.5,2.2-1.5,3.6c0,1.4,0.5,2.6,1.5,3.6c0.5,0.5,1,0.8,1.6,1.1s1.4,0.4,2.2,0.4s1.7-0.3,2.5-0.8s1.5-1.3,1.9-2.2h-1.8
	c-0.3,0.5-0.8,0.8-1.3,1.1s-1,0.4-1.6,0.4c-0.8,0-1.6-0.3-2.3-0.8s-1.1-1.2-1.2-2.1h8.6L942.3,187.4L942.3,187.4z M928.8,187.6
	c0,1-0.3,1.8-1,2.5c-0.6,0.7-1.5,1.1-2.4,1.1c-1,0-1.8-0.4-2.4-1.1c-0.6-0.7-1-1.5-1-2.5s0.3-1.8,1-2.5c0.6-0.7,1.5-1.1,2.4-1.1
	c1,0,1.8,0.4,2.4,1.1C928.5,185.8,928.8,186.7,928.8,187.6 M922,198.1v-7.2c0.1,0.1,0.2,0.2,0.3,0.3c0.9,1,2,1.5,3.4,1.5
	s2.5-0.5,3.4-1.5s1.3-2.2,1.3-3.5c0-1.4-0.4-2.5-1.3-3.5c-0.9-1-2-1.5-3.4-1.5s-2.5,0.5-3.4,1.5c-0.1,0.1-0.2,0.2-0.3,0.3v-1.7h-1.6
	V198L922,198.1L922,198.1z M916.5,192.5h2l-3.4-4.9l3.4-4.9h-2l-2.4,3.8l-2.4-3.8h-2l3.4,4.9l-3.4,4.9h2l2.4-3.8L916.5,192.5z
	 M907.3,186.9h-6.9c0.1-0.4,0.3-0.8,0.5-1.1c0.7-1.1,1.7-1.7,3-1.7c0.8,0,1.6,0.3,2.2,0.8C906.5,185.4,907,186.1,907.3,186.9
	 M908.8,187.4c0-1.3-0.5-2.5-1.5-3.5s-2.2-1.4-3.5-1.4c-1.4,0-2.6,0.5-3.6,1.5s-1.5,2.2-1.5,3.6c0,1.4,0.5,2.6,1.5,3.6
	c0.5,0.5,1,0.8,1.6,1.1s1.4,0.4,2.2,0.4s1.7-0.3,2.5-0.8s1.5-1.3,1.9-2.2h-1.8c-0.3,0.5-0.8,0.8-1.3,1.1s-1,0.4-1.6,0.4
	c-0.8,0-1.6-0.3-2.3-0.8s-1.1-1.2-1.2-2.1h8.6L908.8,187.4L908.8,187.4z M888.3,197.5h1.2v-21.1h-1.2V197.5z M873.3,184.2h2.4v8.3
	h1.5v-8.3h2.4v-1.4h-2.4V179h-1.5v3.8h-2.4V184.2z M872.3,186.2c-0.3-1.1-0.9-2-1.8-2.7s-1.9-1-3-1c-1.4,0-2.6,0.5-3.5,1.5
	s-1.4,2.2-1.4,3.6s0.5,2.6,1.4,3.6c0.4,0.5,1,0.8,1.6,1.1c0.6,0.3,1.2,0.4,1.8,0.4s1.2-0.1,1.6-0.3c1.6-0.5,2.6-1.6,3.2-3.2h-1.8
	c-0.3,0.5-0.7,1-1.2,1.3s-1.1,0.5-1.7,0.5c-1,0-1.8-0.4-2.4-1c-0.6-0.7-1-1.5-1-2.4s0.3-1.8,1-2.4c0.3-0.3,0.6-0.6,1.1-0.8
	s0.9-0.3,1.5-0.3s1.1,0.2,1.7,0.6c0.6,0.4,1,0.9,1.3,1.5L872.3,186.2L872.3,186.2z M859.2,186.9h-6.9c0.1-0.4,0.3-0.8,0.5-1.1
	c0.7-1.1,1.7-1.7,3-1.7c0.8,0,1.6,0.3,2.2,0.8C858.5,185.4,859,186.1,859.2,186.9 M860.8,187.4c0-1.3-0.5-2.5-1.5-3.5
	s-2.2-1.4-3.5-1.4c-1.4,0-2.6,0.5-3.6,1.5s-1.5,2.2-1.5,3.6c0,1.4,0.5,2.6,1.5,3.6c0.5,0.5,1,0.8,1.6,1.1s1.4,0.4,2.2,0.4
	s1.7-0.3,2.5-0.8s1.5-1.3,1.9-2.2h-1.8c-0.3,0.5-0.8,0.8-1.3,1.1s-1,0.4-1.6,0.4c-0.8,0-1.6-0.3-2.3-0.8s-1.1-1.2-1.2-2.1h8.6V187.4
	L860.8,187.4z M846.8,192.5h1.5v-6.1c0-1.1-0.3-2-0.9-2.8c-0.3-0.4-0.6-0.6-1.1-0.8c-0.4-0.2-1-0.3-1.7-0.3c-0.7,0-1.3,0.2-1.8,0.5
	c-0.5,0.4-0.9,0.8-1.3,1.3v-1.7h-1.5v9.8h1.5v-4.1c0-1.3,0.2-2.2,0.7-3c0.3-0.4,0.6-0.8,1-1c0.4-0.3,1-0.4,1.6-0.4
	c0.7,0,1.1,0.2,1.4,0.7c0.3,0.5,0.4,1,0.4,1.6v6.3H846.8z M835.8,192.5h1.5v-6.1c0-1.1-0.3-2-0.9-2.8c-0.3-0.4-0.6-0.6-1.1-0.8
	c-0.4-0.2-1-0.3-1.7-0.3s-1.3,0.2-1.8,0.5c-0.5,0.4-0.9,0.8-1.3,1.3v-1.7H829v9.8h1.5v-4.1c0-1.3,0.2-2.2,0.7-3c0.3-0.4,0.6-0.8,1-1
	c0.4-0.3,1-0.4,1.6-0.4c0.7,0,1.1,0.2,1.4,0.7s0.4,1,0.4,1.6L835.8,192.5L835.8,192.5z M826.5,187.6c0-1.4-0.5-2.6-1.5-3.6
	s-2.2-1.5-3.6-1.5c-1.4,0-2.6,0.5-3.6,1.5s-1.5,2.2-1.5,3.6c0,1.4,0.5,2.6,1.5,3.6s2.2,1.5,3.6,1.5c1.4,0,2.6-0.5,3.6-1.5
	C826,190.2,826.5,189,826.5,187.6 M825,187.6c0,1-0.4,1.8-1,2.5c-0.7,0.7-1.5,1-2.5,1s-1.8-0.4-2.5-1s-1-1.5-1-2.5s0.4-1.8,1-2.5
	s1.5-1,2.5-1s1.8,0.4,2.5,1C824.7,185.8,825,186.6,825,187.6 M814.8,186.2c-0.3-1.1-0.9-2-1.8-2.7s-1.9-1-3-1
	c-1.4,0-2.6,0.5-3.5,1.5s-1.4,2.2-1.4,3.6s0.5,2.6,1.4,3.6c0.4,0.5,1,0.8,1.6,1.1c0.6,0.3,1.2,0.4,1.8,0.4c0.6,0,1.2-0.1,1.6-0.3
	c1.6-0.5,2.6-1.6,3.2-3.2h-1.8c-0.3,0.5-0.7,1-1.2,1.3s-1.1,0.5-1.7,0.5c-1,0-1.8-0.4-2.4-1c-0.6-0.7-1-1.5-1-2.4s0.3-1.8,1-2.4
	c0.3-0.3,0.6-0.6,1.1-0.8c0.4-0.2,0.9-0.3,1.5-0.3s1.1,0.2,1.7,0.6c0.6,0.4,1,0.9,1.3,1.5L814.8,186.2L814.8,186.2z M794.5,197.5
	h1.2v-21.1h-1.2V197.5z M784,186.9h-6.9c0.1-0.4,0.3-0.8,0.5-1.1c0.7-1.1,1.7-1.7,3-1.7c0.8,0,1.6,0.3,2.2,0.8
	S783.8,186.1,784,186.9 M785.5,187.4c0-1.3-0.5-2.5-1.5-3.5s-2.2-1.4-3.5-1.4c-1.4,0-2.6,0.5-3.6,1.5s-1.5,2.2-1.5,3.6
	c0,1.4,0.5,2.6,1.5,3.6c0.5,0.5,1,0.8,1.6,1.1s1.4,0.4,2.2,0.4c0.9,0,1.7-0.3,2.5-0.8s1.5-1.3,1.9-2.2h-1.8
	c-0.3,0.5-0.8,0.8-1.3,1.1s-1,0.4-1.6,0.4c-0.8,0-1.6-0.3-2.3-0.8c-0.7-0.5-1.1-1.2-1.2-2.1h8.6L785.5,187.4L785.5,187.4z
	 M770.2,193.4l4.5-10.7h-1.7l-2.8,7.3l-2.8-7.3h-1.7L770.2,193.4z M765,187.6c0-1.4-0.5-2.6-1.5-3.6s-2.2-1.5-3.6-1.5
	c-1.4,0-2.6,0.5-3.6,1.5s-1.5,2.2-1.5,3.6c0,1.4,0.5,2.6,1.5,3.6s2.2,1.5,3.6,1.5c1.4,0,2.6-0.5,3.6-1.5
	C764.5,190.2,765,189,765,187.6 M763.5,187.6c0,1-0.4,1.8-1,2.5s-1.5,1-2.5,1s-1.8-0.4-2.5-1c-0.7-0.7-1-1.5-1-2.5s0.4-1.8,1-2.5
	c0.7-0.7,1.5-1,2.5-1s1.8,0.4,2.5,1C763.2,185.8,763.5,186.6,763.5,187.6 M751,192.5h1.6v-6.1c0-1.1-0.3-2-0.8-2.7
	c-0.3-0.4-0.6-0.6-1-0.9c-0.4-0.2-1-0.3-1.6-0.3s-1.3,0.2-1.8,0.6c-0.5,0.3-0.9,0.8-1.1,1.3c-0.1-0.3-0.3-0.5-0.4-0.7
	c-0.3-0.4-0.6-0.6-1-0.9c-0.4-0.2-1-0.3-1.6-0.3c-0.7,0-1.3,0.2-1.8,0.6c-0.4,0.3-0.8,0.7-1.1,1.2v-1.5H739v9.7h1.5v-5
	c0.1-0.8,0.3-1.5,0.6-2c0.3-0.4,0.6-0.8,1-1c0.4-0.3,0.8-0.4,1.3-0.4s0.8,0.1,1,0.2c0.6,0.4,1,1.1,1,2.1v6.1h1.5v-6.1
	c0-0.1,0-0.3,0-0.4c0.1-0.2,0.1-0.4,0.3-0.5c0.3-0.4,0.5-0.8,1-1c0.4-0.3,0.8-0.4,1.3-0.4s0.8,0.1,1,0.2c0.6,0.4,1,1.1,1,2.1
	C751,186.4,751,192.5,751,192.5z"/>
<rect x="737.5" y="2.2" fill="none" width="272.9" height="196.8"/>
</svg>
