<?xml version="1.0" encoding="utf-8"?>
<!-- Generator: Adobe Illustrator 18.1.1, SVG Export Plug-In . SVG Version: 6.00 Build 0)  -->
<svg version="1.1" id="Layer_1" xmlns="http://www.w3.org/2000/svg" xmlns:xlink="http://www.w3.org/1999/xlink" x="0px" y="0px"
	 viewBox="737.5 0 262.5 167.5" enable-background="new 737.5 0 262.5 167.5" xml:space="preserve">
<g>
	<g>
		<g>
			<defs>
				<path id="SVGID_1_" d="M922,59.6c-2.2,0-4,1.8-4,4v95.1c0,2.2,1.8,4,4,4h70.8c2.2,0,4-1.8,4-4v-15.4c0-2.2-1.8-4-4-4h-45.9
					c-2.2,0-4-1.8-4-4v-9.1c0-2.2,1.8-4,4-4H988c2.2,0,4-1.8,4-4V104c0-2.2-1.8-4-4-4h-41.1c-2.2,0-4-1.8-4-4v-9.1c0-2.2,1.8-4,4-4
					h45.5c2.2,0,4-1.8,4-4V63.6c0-2.2-1.8-4-4-4L922,59.6z"/>
			</defs>
			<clipPath id="SVGID_2_">
				<use xlink:href="#SVGID_1_"  overflow="visible"/>
			</clipPath>
			<rect x="918" y="59.6" clip-path="url(#SVGID_2_)" fill="#0095A2" width="78.8" height="103.1"/>
		</g>
	</g>
</g>
<g>
	<g>
		<g>
			<defs>
				<rect id="SVGID_3_" x="737.5" width="272.9" height="196.8"/>
			</defs>
			<clipPath id="SVGID_4_">
				<use xlink:href="#SVGID_3_"  overflow="visible"/>
			</clipPath>
			<path clip-path="url(#SVGID_4_)" fill="none" stroke="#FFFFFF" stroke-width="1.277" stroke-miterlimit="10" d="M992.8,162.7H922
				c-2.2,0-4-1.8-4-4V63.6c0-2.2,1.8-4,4-4h70.4c2.2,0,4,1.8,4,4V79c0,2.2-1.8,4-4,4H947c-2.2,0-4,1.8-4,4v9.1c0,2.2,1.8,4,4,4h41.1
				c2.2,0,4,1.8,4,4v14.2c0,2.2-1.8,4-4,4H947c-2.2,0-4,1.8-4,4v9.1c0,2.2,1.8,4,4,4H993c2.2,0,4,1.8,4,4v15.4
				C996.8,160.9,995,162.7,992.8,162.7z"/>
		</g>
	</g>
</g>
<g>
	<g>
		<g>
			<defs>
				<path id="SVGID_5_" d="M912.5,1.4l-10.5,7c-0.3,0.2-0.4,0.5-0.4,0.8v107.6c0,1-1.2,1.4-1.8,0.6L855.3,62
					c-6.6-9.3-12.1-8.3-12.1-8.3s-9.7,0.5-10.3,8.1v102.5c0,0.6,0.6,0.8,1.3,0.9h0.6c0.1,0,0.1,0,0.2,0h3.4h17.9
					c0.3-0.1,0.5-0.3,0.5-0.8v-59.1c0-0.9,1.1-1.4,1.8-0.6l46.7,54c0,0,3.8,6.2,12.5,4.6c6.8-1.3,7.7-8.4,7.7-8.4V9.2
					c0-0.4-0.2-0.7-0.5-0.9l-11.2-7c-0.2-0.1-0.4-0.1-0.5-0.1C913,1.2,912.8,1.3,912.5,1.4"/>
			</defs>
			<clipPath id="SVGID_6_">
				<use xlink:href="#SVGID_5_"  overflow="visible"/>
			</clipPath>
			<polygon clip-path="url(#SVGID_6_)" fill="#F47354" points="925.5,1.2 925.3,165.3 832.8,165.3 833,1.2 			"/>
		</g>
	</g>
</g>
<g>
	<g>
		<g>
			<defs>
				<rect id="SVGID_7_" x="737.5" width="272.9" height="196.8"/>
			</defs>
			<clipPath id="SVGID_8_">
				<use xlink:href="#SVGID_7_"  overflow="visible"/>
			</clipPath>
			<path clip-path="url(#SVGID_8_)" fill="none" stroke="#FFFFFF" stroke-width="1.703" stroke-miterlimit="10" d="M835,165.1
				c-0.9,0.1-2,0-2-0.8V61.8c0.5-7.7,10.3-8.2,10.3-8.2s5.5-1,12.1,8.3l44.6,55.4c0.6,0.8,1.8,0.3,1.8-0.6V9.1
				c0-0.3,0.2-0.6,0.4-0.8l10.5-6.9c0.3-0.2,0.8-0.2,1.1,0l11.2,7c0.3,0.2,0.5,0.5,0.5,0.9v145.5c0,0-0.9,7.1-7.7,8.4
				c-8.7,1.6-12.5-4.6-12.5-4.6l-46.7-54c-0.6-0.7-1.8-0.3-1.8,0.6v59.1c0,0.8-0.5,0.9-1.5,0.9L835,165.1z"/>
		</g>
	</g>
</g>
<g>
	<g>
		<g>
			<defs>
				<path id="SVGID_9_" d="M762.8,110.3c0-16.6,12-28.9,27.7-28.9c15.8,0,27.7,12.3,27.7,28.9c0,16.5-12,28.6-27.7,28.6
					C774.8,138.9,762.8,126.8,762.8,110.3 M739,110.3c0,28.2,22.7,50.4,51.6,50.4c28.9,0,51.6-22.3,51.6-50.4
					c0-28.3-22.7-50.7-51.6-50.7C761.8,59.6,739,82,739,110.3"/>
			</defs>
			<clipPath id="SVGID_10_">
				<use xlink:href="#SVGID_9_"  overflow="visible"/>
			</clipPath>
			<rect x="739.1" y="59.6" clip-path="url(#SVGID_10_)" fill="#0095A2" width="103.2" height="101.1"/>
		</g>
	</g>
</g>
<g>
	<g>
		<g>
			<defs>
				<rect id="SVGID_11_" x="737.5" width="272.9" height="196.8"/>
			</defs>
			<clipPath id="SVGID_12_">
				<use xlink:href="#SVGID_11_"  overflow="visible"/>
			</clipPath>
			<path clip-path="url(#SVGID_12_)" fill="none" stroke="#FFFFFF" stroke-width="1.703" stroke-miterlimit="10" d="M818.3,110.3
				c0-16.6-12-28.9-27.7-28.9c-15.7,0-27.7,12.3-27.7,28.9c0,16.5,12,28.6,27.7,28.6C806.3,138.9,818.3,126.8,818.3,110.3z
				 M842.2,110.3c0,28.2-22.7,50.4-51.6,50.4s-51.6-22.3-51.6-50.4c0-28.3,22.7-50.7,51.6-50.7S842.2,82,842.2,110.3z"/>
		</g>
	</g>
	<g>
		<g>
			<defs>
				<rect id="SVGID_13_" x="737.5" width="272.9" height="196.8"/>
			</defs>
			<clipPath id="SVGID_14_">
				<use xlink:href="#SVGID_13_"  overflow="visible"/>
			</clipPath>
			<path clip-path="url(#SVGID_14_)" fill="#FFFFFF" d="M926.8,122.4H737.7v-21.8h189.1l7.3,10.3c0.4,0.5,0.4,1.3,0,1.8L926.8,122.4
				z"/>
		</g>
	</g>
	<g>
		<g>
			<defs>
				<rect id="SVGID_15_" x="737.5" width="272.9" height="196.8"/>
			</defs>
			<clipPath id="SVGID_16_">
				<use xlink:href="#SVGID_15_"  overflow="visible"/>
			</clipPath>
			
				<path clip-path="url(#SVGID_16_)" fill="none" stroke="#FFFFFF" stroke-width="0.284" stroke-linecap="round" stroke-linejoin="round" stroke-miterlimit="10" d="
				M926.8,122.4H737.7v-21.8h189.1l7.3,10.3c0.4,0.5,0.4,1.3,0,1.8L926.8,122.4z"/>
		</g>
	</g>
	<g>
		<g>
			<defs>
				<rect id="SVGID_17_" x="737.5" width="272.9" height="196.8"/>
			</defs>
			<clipPath id="SVGID_18_">
				<use xlink:href="#SVGID_17_"  overflow="visible"/>
			</clipPath>
			<path clip-path="url(#SVGID_18_)" fill="#6E6E70" d="M778,114.5c-0.7,3.7-3.6,5.8-7.4,5.8c-4.3,0-7.8-3.3-7.8-7.6
				c0-4.3,3.4-7.6,7.8-7.6c3.6,0,6.7,2.2,7.4,5.6l-3.5,0.8c-0.5-2.1-1.9-3.2-3.8-3.2c-2.3,0-4.2,1.9-4.2,4.3c0,2.5,1.9,4.4,4.2,4.4
				c1.9,0,3.3-1,3.8-3.2L778,114.5z"/>
		</g>
	</g>
</g>
<polygon fill="#6E6E70" points="791.5,120 780,120 780,105.3 791.5,105.3 791.5,108.4 783.7,108.4 783.7,111.2 790.8,111.2 
	790.8,114.1 783.7,114.1 783.7,116.8 791.5,116.8 "/>
<polygon fill="#6E6E70" points="807.8,120 804.8,120 797.3,111.5 797.3,120 793.8,120 793.8,105.3 796.8,105.3 804.2,114 
	804.2,105.3 807.8,105.3 "/>
<polygon fill="#6E6E70" points="817.8,108.4 817.8,120 814.2,120 814.2,108.4 809.5,108.4 809.5,105.3 822.5,105.3 822.5,108.4 "/>
<polygon fill="#6E6E70" points="835.7,120 824.3,120 824.3,105.3 835.5,105.3 835.5,108.4 827.8,108.4 827.8,111.2 835,111.2 
	835,114.1 827.8,114.1 827.8,116.8 835.7,116.8 "/>
<g>
	<g>
		<g>
			<defs>
				<rect id="SVGID_19_" x="737.5" width="272.9" height="196.8"/>
			</defs>
			<clipPath id="SVGID_20_">
				<use xlink:href="#SVGID_19_"  overflow="visible"/>
			</clipPath>
			<path clip-path="url(#SVGID_20_)" fill="#6E6E70" d="M845,111.9c1.3,0,2.1-0.7,2.1-1.8c0-1-0.8-1.8-2.1-1.8h-3.4v3.5h3.4V111.9z
				 M847,120l-4.4-5h-1v5H838v-14.7h7.4c3.2,0,5.3,1.9,5.3,4.8c0,2.4-1.5,4.1-3.8,4.7l4.6,5.2H847z"/>
		</g>
	</g>
	<g>
		<g>
			<defs>
				<rect id="SVGID_21_" x="737.5" width="272.9" height="196.8"/>
			</defs>
			<clipPath id="SVGID_22_">
				<use xlink:href="#SVGID_21_"  overflow="visible"/>
			</clipPath>
			<path clip-path="url(#SVGID_22_)" fill="#6E6E70" d="M872.5,114.5c-0.7,3.7-3.6,5.8-7.4,5.8c-4.3,0-7.8-3.3-7.8-7.6
				c0-4.3,3.4-7.6,7.8-7.6c3.6,0,6.7,2.2,7.4,5.6l-3.5,0.8c-0.5-2.1-1.9-3.2-3.8-3.2c-2.3,0-4.2,1.9-4.2,4.3c0,2.5,1.9,4.4,4.2,4.4
				c1.9,0,3.3-1,3.8-3.2L872.5,114.5z"/>
		</g>
	</g>
</g>
<rect x="874.5" y="105.3" fill="#6E6E70" width="3.6" height="14.7"/>
<polygon fill="#6E6E70" points="888.2,108.4 888.2,120 884.5,120 884.5,108.4 879.8,108.4 879.8,105.3 893,105.3 893,108.4 "/>
<polygon fill="#6E6E70" points="902.8,120 899.2,120 899.2,115.4 893.5,105.3 897.5,105.3 901,111.7 904.7,105.3 908.7,105.3 
	902.8,115.4 "/>
<rect x="737.5" fill="none" width="272.9" height="196.8"/>
</svg>
