<?xml version="1.0" standalone="no"?>
<!DOCTYPE svg PUBLIC "-//W3C//DTD SVG 20010904//EN"
 "http://www.w3.org/TR/2001/REC-SVG-20010904/DTD/svg10.dtd">
<svg version="1.0" xmlns="http://www.w3.org/2000/svg"
 width="263.000000pt" height="263.000000pt" viewBox="0 0 263.000000 263.000000"
 preserveAspectRatio="xMidYMid meet">
<metadata>
Created by potrace 1.11, written by Peter Selinger 2001-2013
</metadata>
<g transform="translate(0.000000,263.000000) scale(0.100000,-0.100000)"
fill="#000000" stroke="none">
<path d="M1707 2292 l-57 -37 0 -542 c0 -298 -4 -544 -9 -547 -4 -3 -115 127
-245 289 -131 162 -252 306 -269 321 -26 22 -38 25 -75 21 -26 -3 -53 -14 -68
-28 -22 -21 -24 -29 -24 -127 l0 -105 -63 60 c-103 99 -214 143 -362 143 -149
0 -263 -47 -366 -149 -198 -198 -200 -509 -4 -706 201 -203 529 -206 737 -7
l58 55 0 -121 0 -122 120 0 120 0 0 300 c0 165 3 300 8 300 4 0 115 -125 247
-279 132 -153 249 -284 260 -291 25 -17 852 -15 872 2 14 11 19 171 7 202 -5
14 -36 16 -243 16 -286 0 -285 0 -289 85 -1 33 2 67 8 75 8 12 50 16 242 20
l233 5 3 94 c2 60 -1 98 -9 107 -9 11 -55 14 -233 14 -159 0 -225 3 -234 12
-16 16 -16 134 1 145 6 4 125 10 262 13 l250 5 0 110 0 110 -350 5 -350 5 -3
255 -2 255 -59 37 -58 36 -56 -36z m-1077 -787 c225 -79 243 -417 28 -526
-180 -92 -398 48 -398 256 0 115 77 235 172 268 56 20 145 21 198 2z"/>
</g>
</svg>
