<?xml version="1.0" encoding="utf-8"?>
<!-- Generator: Adobe Illustrator 16.0.0, SVG Export Plug-In . SVG Version: 6.00 Build 0)  -->
<!DOCTYPE svg PUBLIC "-//W3C//DTD SVG 1.1//EN" "http://www.w3.org/Graphics/SVG/1.1/DTD/svg11.dtd">
<svg version="1.1" id="Layer_1" xmlns="http://www.w3.org/2000/svg" xmlns:xlink="http://www.w3.org/1999/xlink" x="0px" y="0px"
	 width="201.897px" height="33.3px" viewBox="0 0 201.897 33.3" enable-background="new 0 0 201.897 33.3" xml:space="preserve">
<rect fill="#FFFFFF" width="201.897" height="33.3"/>
<g>
	<rect y="5.406" fill="#0060A3" width="4.568" height="26.21"/>
</g>
<g>
	<polygon fill="#0060A3" points="7.338,5.406 11.569,5.406 16.287,18.961 16.287,5.406 20.669,5.406 20.669,31.616 16.662,31.616 
		11.719,17.427 11.719,31.616 7.338,31.616 	"/>
</g>
<g>
	<path fill="#0060A3" d="M23.363,5.406h4.268c5.841,0,9.174,4.23,9.174,12.655v0.899c0,8.425-3.333,12.655-9.174,12.655h-4.268
		V5.406z M27.931,9.6v17.823h0.187c2.171,0,4.043-1.909,4.043-8.462v-0.899c0-6.552-1.872-8.462-4.043-8.462H27.931z"/>
</g>
<g>
	<rect x="39.125" y="5.406" fill="#0060A3" width="4.567" height="26.21"/>
</g>
<g>
	<polygon fill="#0060A3" points="45.152,5.406 49.795,5.406 52.267,22.48 54.737,5.406 59.231,5.406 54.55,31.691 49.833,31.691 	
		"/>
</g>
<g>
	<rect x="60.69" y="5.406" fill="#0060A3" width="4.568" height="26.21"/>
</g>
<g>
	<path fill="#0060A3" d="M67.467,30.718v-4.681c1.61,0.937,2.658,1.461,4.044,1.461c1.46,0,2.509-0.861,2.509-2.584
		c0-0.861-0.263-2.06-2.509-4.493c-3.22-3.52-4.419-5.354-4.419-8.388c0-4.156,2.733-6.814,6.478-6.814
		c1.723,0,2.92,0.374,3.932,0.824v4.68c-1.423-0.823-2.284-1.198-3.482-1.198c-1.274,0-2.36,0.824-2.36,2.359
		c0,1.086,0.375,1.835,2.547,4.344c3.594,4.156,4.381,5.916,4.381,8.725c0,4.118-2.884,6.852-6.478,6.852
		C70.313,31.804,68.778,31.354,67.467,30.718"/>
</g>
<g>
	<rect x="80.272" y="5.406" fill="#0060A3" width="4.567" height="26.21"/>
</g>
<g>
	<path fill="#0060A3" d="M87.61,5.406h3.893c2.696,0,5.28,0.674,6.816,2.209c1.123,1.123,1.722,2.546,1.722,4.455v0.188
		c0,3.37-1.91,5.018-3.782,5.916c2.209,0.974,4.119,2.509,4.119,5.842v0.337c0,4.644-3.595,7.264-8.687,7.264H87.61V5.406z
		 M95.547,12.895c0-2.284-1.348-3.258-3.369-3.258h-0.075v6.777h0.075c2.021,0,3.369-1.16,3.369-3.444V12.895z M92.215,20.384
		h-0.112v7.002h0.112c2.097,0,3.595-1.235,3.595-3.407v-0.188C95.81,21.619,94.312,20.384,92.215,20.384"/>
</g>
<g>
	<polygon fill="#0060A3" points="102.286,5.406 106.854,5.406 106.854,27.273 111.684,27.273 111.684,31.616 102.286,31.616 	"/>
</g>
<g>
	<polygon fill="#0060A3" points="113.518,5.406 123.553,5.406 123.553,9.749 118.084,9.749 118.084,16.265 122.917,16.265 
		122.917,20.608 118.084,20.608 118.084,27.273 123.665,27.273 123.665,31.616 113.518,31.616 	"/>
</g>
<g>
	<polygon fill="#0060A3" points="139.534,18.034 135.612,18.034 135.612,27.816 133.289,27.816 133.289,18.034 129.348,18.034 
		129.348,15.98 139.534,15.98 	"/>
</g>
<g>
	<path fill="#0060A3" d="M146.891,25.526h-5.066l-0.943,2.29h-2.459l5.187-11.836h1.532l5.152,11.836h-2.457L146.891,25.526z
		 M142.565,23.557h3.586l-1.784-4.276L142.565,23.557z"/>
</g>
<g>
	<path fill="#0060A3" d="M150.663,21.906c0-3.435,2.51-6.077,6.298-6.077c2.069,0,3.366,0.74,3.905,1.145l-1.026,1.852
		c-0.271-0.201-1.212-0.824-2.744-0.824c-2.442,0-4.041,1.531-4.041,3.889s1.583,3.906,4.041,3.906c1.532,0,2.458-0.589,2.761-0.791
		l1.01,1.835c-0.539,0.404-1.784,1.129-3.905,1.129C153.155,27.969,150.663,25.324,150.663,21.906"/>
</g>
<g>
	<path fill="#0060A3" d="M161.641,21.924c0-3.435,2.643-6.095,6.263-6.095c3.586,0,6.196,2.593,6.196,6.095
		c0,3.468-2.61,6.044-6.196,6.044C164.284,27.968,161.641,25.341,161.641,21.924 M171.725,21.924c0-2.257-1.633-3.94-3.821-3.94
		c-2.239,0-3.89,1.701-3.89,3.94c0,2.222,1.65,3.905,3.89,3.905C170.092,25.829,171.725,24.163,171.725,21.924"/>
</g>
<g>
	<polygon fill="#0060A3" points="186.508,27.816 186.407,20.711 183.141,26.436 181.693,26.436 178.493,20.711 178.375,27.816 
		176.103,27.816 176.473,15.98 177.938,15.98 182.417,23.759 186.997,15.98 188.444,15.98 188.797,27.816 	"/>
</g>
<g>
	<path fill="#0060A3" d="M198.495,25.526h-5.067l-0.942,2.29h-2.459l5.187-11.836h1.532l5.152,11.836h-2.459L198.495,25.526z
		 M194.168,23.557h3.586l-1.784-4.276L194.168,23.557z"/>
</g>
<g>
	<path fill="#FFFFFF" d="M129.306,31.71l-0.104,0.036c-0.264,0.09-0.342-0.014-0.398-0.178l-6.938-22.697
		c-0.056-0.164,0.115-0.372,0.379-0.462l0.328-0.111c0.264-0.09,0.526-0.029,0.582,0.135l6.176,22.886
		C129.387,31.482,129.471,31.619,129.306,31.71"/>
</g>
<g>
	<path fill="#0060A3" d="M129.045,31.798l-0.008,0.004c-0.201,0.042-0.197-0.126-0.233-0.232l-6.974-22.801
		c-0.037-0.107,0.076-0.245,0.25-0.304l0.012-0.004c0.174-0.059,0.347-0.02,0.384,0.089l6.632,23.073
		C129.146,31.731,129.167,31.787,129.045,31.798"/>
</g>
<g>
	<path fill="#FFFFFF" d="M118.739,1.611c0,0,1.49-0.146,3.236-0.123c1.748,0.022,8.318,2.215,9.892,2.744
		c1.571,0.529,11.829,4.178,12.13,4.357c0.299,0.183,0.305,0.461-0.062,0.92s-1.388,2.18-1.388,2.18s1.05-1.055,1.851-1.194
		c0.931,0.345,1.994,0.771,1.994,0.771l-2.084,1.148c0,0-1.375,1.935-1.681,1.859s-3.872-1.799-3.872-1.799l-2.084,1.69
		l-1.225-0.325l-2.004,0.604l-3.41,3.775l-4.641,2.452c0,0-3.281-9.265-3.649-10.34C121.375,9.257,118.739,1.611,118.739,1.611"/>
</g>
<g>
	<path fill="#0060A3" d="M134.055,10.116c-0.295-0.018-0.59-0.045-0.885-0.052c-0.474-0.013-0.949-0.033-1.422-0.013
		c-1.244,0.054-2.482,0.21-3.713,0.423c-0.551,0.095-1.093,0.252-1.642,0.356c-0.478,0.091-0.941,0.242-1.412,0.354
		c-0.612,0.145-1.218,0.323-1.826,0.487c-0.065,0.018-0.114,0.053-0.149-0.053c-0.084-0.248-0.353-0.283-0.564-0.089
		c-0.243,0.22-0.245,0.222-0.323-0.085c-0.073-0.286-0.192-0.555-0.282-0.833c-0.267-0.811-0.584-1.604-0.847-2.415
		c-0.229-0.705-0.472-1.404-0.714-2.104c-0.212-0.615-0.43-1.23-0.661-1.84c-0.284-0.746-0.524-1.509-0.803-2.256
		c-0.173-0.458-0.159-0.429,0.325-0.653c0.246-0.115,0.352-0.052,0.404,0.212c0.025,0.117,0.051,0.234,0.075,0.349
		c0.062-0.006,0.052-0.044,0.063-0.07c0.037-0.095-0.022-0.224,0.107-0.283c0.16-0.074,0.326-0.109,0.494-0.059
		c0.032,0.01,0.064,0.047,0.1,0.028c0.215-0.11,0.444-0.021,0.67-0.097c0.205-0.069,0.434,0,0.651,0.008
		c0.687,0.023,1.361,0.118,2.027,0.247c0.597,0.116,1.19,0.251,1.758,0.474c0.354,0.14,0.731,0.231,1.101,0.342
		c0.453,0.135,0.908,0.26,1.358,0.403c0.81,0.259,1.618,0.529,2.427,0.793c0.291,0.095,0.584,0.184,0.875,0.279
		c0.038,0.013,0.071,0.045,0.105,0.067c0.008,0.284,0.087,0.548,0.189,0.805c0.053,0.316,0.07,0.645,0.272,0.909
		c-0.001,0.321,0.142,0.59,0.28,0.86c-0.041,0.065,0.004,0.122,0.023,0.172c0.082,0.207,0.176,0.408,0.266,0.612
		c0.021,0.044,0.037,0.091,0.096,0.099c0.084,0.322,0.244,0.604,0.438,0.867c0.125,0.339,0.315,0.638,0.563,0.898
		c0.043,0.108,0.108,0.2,0.174,0.296C133.785,9.748,133.975,9.892,134.055,10.116 M129.779,7.731
		c-0.019-0.018-0.037-0.035-0.056-0.053c-0.059-0.084,0.086-0.097,0.066-0.179c-0.175,0.019-0.293-0.074-0.389-0.219
		c0.02,0.174-0.111,0.156-0.207,0.187c0.197,0.018,0.243,0.179,0.311,0.325c0.06-0.065,0.101-0.152,0.187-0.071l0.058,0.047
		c0.021,0.025,0.041,0.042,0.075,0.016C129.809,7.767,129.793,7.749,129.779,7.731 M133.288,9.808
		c0.01-0.004,0.021-0.007,0.031-0.011c-0.005-0.004-0.01-0.008-0.014-0.012c-0.006,0.009-0.012,0.017-0.018,0.025
		c-0.008-0.068,0.002-0.188-0.027-0.195c-0.131-0.037-0.237-0.109-0.358-0.184c0.112,0.051-0.115,0.131,0.017,0.161
		c0.082,0.02,0.043,0.173,0.137,0.13C133.182,9.668,133.223,9.75,133.288,9.808 M130.904,8.413c-0.035,0.02-0.009,0.035,0.003,0.051
		c0.001,0.001,0.014-0.009,0.021-0.014L130.9,8.415c-0.072-0.053,0.088-0.162-0.001-0.159c-0.168,0.006-0.21-0.127-0.331-0.227
		c0.108,0.257-0.06,0.148-0.153,0.164C130.625,8.186,130.635,8.547,130.904,8.413 M131.709,9.551
		c-0.02,0.006-0.035,0.017-0.017,0.037c0.006,0.008,0.019,0.01,0.028,0.015c-0.004-0.018-0.01-0.034-0.014-0.052
		c-0.096-0.039-0.08-0.101-0.003-0.173c-0.136-0.013-0.252-0.027-0.339-0.109c-0.012-0.011-0.051-0.042-0.041-0.006
		c0.033,0.136-0.115,0.051-0.136,0.12c0.133,0.032,0.216,0.109,0.243,0.286C131.488,9.445,131.625,9.618,131.709,9.551
		 M131.432,7.341c-0.008-0.012-0.016-0.03-0.034-0.012c-0.002,0.002,0,0.012,0.003,0.015c0.012,0.011,0.027,0.019,0.033-0.008
		c0.035,0.106,0.215,0.118,0.177,0.274c-0.001,0.006,0.032,0.026,0.037,0.023c0.12-0.083,0.194,0.036,0.288,0.072
		c0.012-0.075-0.104-0.102-0.038-0.148c0.08-0.058,0.052-0.073-0.011-0.089c-0.111-0.028-0.196-0.089-0.262-0.184
		c-0.043-0.063-0.048-0.006-0.059,0.026c-0.014,0.013-0.025,0.025-0.037,0.038L131.432,7.341z M130.292,7.255l0.006-0.002h-0.008
		c-0.051-0.048-0.121-0.091-0.044-0.176c0.015-0.016,0.044-0.045-0.003-0.041c-0.179,0.014-0.223-0.154-0.346-0.243
		c0.058,0.127-0.021,0.148-0.139,0.149c0.115,0.102,0.229,0.165,0.197,0.366C130.09,7.131,130.189,7.238,130.292,7.255
		 M130.567,9.004v0.003c-0.035-0.06-0.164-0.087-0.059-0.197c0.031-0.032,0.012-0.058-0.026-0.06
		c-0.165-0.002-0.325-0.169-0.491,0.022c0.075,0.059,0.214,0.074,0.198,0.228c-0.002,0.019,0.056,0.057,0.06,0.054
		C130.348,8.969,130.467,9.063,130.567,9.004 M130.275,5.423c0.009,0.007,0.017,0.014,0.026,0.021
		c0.002-0.003,0.008-0.007,0.006-0.009c-0.004-0.026-0.02-0.023-0.035-0.007c0.023-0.101-0.111-0.218,0.068-0.311
		c-0.235,0.007-0.275-0.192-0.391-0.36c-0.003,0.112-0.005,0.173-0.007,0.23c-0.08,0.027-0.132-0.069-0.231-0.012
		c0.205,0.062,0.242,0.216,0.226,0.424C130.086,5.27,130.18,5.344,130.275,5.423 M130.939,4.875v0.003
		c-0.069-0.117-0.194-0.236,0.06-0.361c-0.252-0.006-0.305-0.174-0.386-0.346c0.013,0.153-0.03,0.248-0.213,0.231
		c0.187,0.087,0.203,0.233,0.167,0.441c0.139-0.162,0.223-0.123,0.286,0.01C130.869,4.887,130.896,4.915,130.939,4.875
		 M128.022,4.437c-0.008-0.007-0.016-0.014-0.023-0.019c0,0.007,0,0.015,0,0.022l0.026-0.009c0.069,0.133,0.243,0.214,0.149,0.446
		c0.207-0.162,0.272,0.051,0.412,0.07c0.004-0.123-0.188-0.221,0.014-0.344c-0.23-0.02-0.297-0.205-0.413-0.34
		C128.176,4.384,128.193,4.504,128.022,4.437 M128.549,6.978c0.019,0.02,0.039,0.066,0.062,0.043
		c0.034-0.035-0.013-0.051-0.04-0.064c-0.027-0.086-0.104-0.173,0.036-0.27c-0.192,0.033-0.278-0.073-0.358-0.188
		c-0.013-0.02-0.029-0.038-0.045-0.057c-0.051-0.057-0.117-0.004-0.111,0.027c0.014,0.088-0.194,0.123-0.082,0.175
		c0.162,0.073,0.228,0.184,0.244,0.384C128.369,6.845,128.459,6.898,128.549,6.978 M128.941,9.087
		c0.004,0.007,0.008,0.015,0.012,0.021c0-0.004,0.002-0.01,0-0.012c-0.003-0.003-0.01-0.005-0.015-0.007
		c-0.064-0.103-0.213-0.183-0.047-0.351c-0.202,0.054-0.324-0.035-0.438-0.168c0.066,0.197-0.079,0.185-0.208,0.216
		c0.199,0.056,0.305,0.178,0.319,0.381C128.705,9.023,128.705,9.023,128.941,9.087 M129.186,4.344
		c0.021,0.014,0.042,0.027,0.062,0.041c0.012-0.037-0.021-0.048-0.039-0.068c-0.111-0.146-0.045-0.241,0.118-0.318
		c-0.254,0.026-0.342-0.141-0.417-0.34c-0.054,0.108-0.074,0.216-0.232,0.22c0.149,0.114,0.246,0.226,0.168,0.428
		C129,4.165,129.078,4.32,129.186,4.344 M125.379,4.514c-0.006-0.021-0.012-0.037-0.033-0.008c0.011,0.004,0.021,0.008,0.029,0.012
		c0.125,0.132,0.319,0.222,0.254,0.48c0.123-0.129,0.232-0.095,0.383-0.012c-0.107-0.163-0.096-0.265,0.074-0.344
		c-0.27,0.022-0.369-0.162-0.494-0.364v0.261C125.512,4.529,125.446,4.521,125.379,4.514 M127.598,8.388
		c0.014,0.008,0.035,0.023,0.039,0.021c0.033-0.03-0.006-0.033-0.019-0.047c-0.073-0.103-0.262-0.185-0.022-0.353
		c-0.25,0.07-0.361-0.096-0.506-0.232c0.111,0.232-0.056,0.232-0.211,0.258c0.229,0.059,0.34,0.197,0.354,0.447
		c0.084-0.259,0.2-0.205,0.328-0.099C127.57,8.39,127.584,8.387,127.598,8.388 M126.771,6.759c0.007,0.016,0.017,0.031,0.034,0.016
		c0.006-0.004-0.006-0.027-0.01-0.041c-0.101-0.102-0.259-0.197,0.008-0.351c-0.276,0.052-0.391-0.123-0.523-0.276
		c0.008,0.077,0.018,0.155,0.027,0.24c-0.09-0.012-0.166-0.021-0.285-0.036c0.128,0.085,0.24,0.129,0.306,0.211
		s-0.013,0.332,0.233,0.153c0.009-0.006,0.052,0.028,0.072,0.05C126.67,6.766,126.721,6.761,126.771,6.759 M127.37,3.724
		c0.008,0.018,0.018,0.034,0.026,0.051c0.002-0.005,0.007-0.011,0.007-0.016c-0.004-0.019,0.001-0.048-0.035-0.032
		c0.034-0.106-0.191-0.27,0.11-0.326c-0.269-0.043-0.366-0.235-0.474-0.432c-0.009,0.075-0.015,0.15-0.021,0.223
		c-0.087,0.009-0.146-0.07-0.226-0.025v-0.01l-0.004,0.005c0.125,0.142,0.311,0.25,0.203,0.542
		C127.158,3.531,127.25,3.681,127.37,3.724 M126.643,10.362c-0.018,0.01-0.018,0.02-0.002,0.027
		c0.005,0.002,0.013-0.001,0.019-0.002l-0.021-0.023c-0.062-0.073-0.135-0.141-0.182-0.223c-0.052-0.094,0.092-0.158,0.08-0.272
		c-0.234,0.117-0.381,0.011-0.518-0.188c0.172,0.311-0.055,0.33-0.264,0.379c0.271,0.033,0.418,0.157,0.408,0.455
		c0.109-0.278,0.262-0.249,0.432-0.14C126.605,10.381,126.627,10.367,126.643,10.362 M123.387,5.711
		c-0.002,0.008-0.004,0.016-0.006,0.023c0.004-0.002,0.008-0.005,0.008-0.006c-0.002-0.006-0.004-0.011-0.006-0.016
		c-0.021-0.036-0.035-0.081-0.064-0.106c-0.122-0.102-0.148-0.198,0.009-0.304c0.017-0.01,0.024-0.037,0.058-0.092
		c-0.306,0.094-0.418-0.105-0.545-0.287c-0.012,0.108,0.031,0.221-0.008,0.286c-0.047,0.074-0.17,0.01-0.258,0.03
		c-0.011,0.003-0.02,0.015-0.031,0.021l0.002-0.008l-0.004,0.004c0.231,0.088,0.407,0.215,0.307,0.536
		c0.229-0.19,0.228-0.189,0.492-0.07C123.35,5.729,123.371,5.715,123.387,5.711 M124.187,7.73l0.007-0.004l-0.012,0.003
		c-0.123-0.353-0.123-0.353-0.034-0.524c-0.106-0.028-0.231,0.073-0.321-0.01c-0.081-0.073-0.136-0.173-0.218-0.281
		c0.008,0.124,0.047,0.236,0.008,0.312c-0.022,0.043-0.171,0.027-0.29,0.041c0.262,0.187,0.262,0.187,0.393,0.489
		c0.183-0.193,0.183-0.193,0.414-0.042C124.149,7.725,124.168,7.726,124.187,7.73 M121.28,2.623c0.006,0.007,0.014,0.014,0.02,0.02
		c0.002-0.008,0.002-0.016,0.002-0.022c-0.008,0.002-0.016,0.005-0.023,0.007c0.031-0.067-0.023-0.101-0.057-0.138
		c-0.094-0.108-0.118-0.208,0.029-0.305c0.025-0.016,0.037-0.048,0.082-0.109c-0.326,0.113-0.424-0.078-0.514-0.315
		c0.037,0.295-0.083,0.412-0.391,0.373c0.311,0.062,0.387,0.245,0.33,0.523c0.164-0.235,0.316-0.188,0.47-0.047
		C121.24,2.62,121.262,2.619,121.28,2.623 M123.484,10.598c0.288,0.025,0.424,0.181,0.39,0.498c0.09-0.33,0.291-0.285,0.516-0.208
		c-0.178-0.173-0.235-0.336-0.002-0.537c-0.305,0.16-0.477,0.037-0.606-0.204c0,0.124,0.049,0.241,0.013,0.322
		C123.746,10.569,123.586,10.511,123.484,10.598 M123.532,8.88c-0.13-0.169-0.35-0.309-0.07-0.562
		c-0.33,0.175-0.437-0.064-0.584-0.29c0.01,0.161,0.053,0.274,0.014,0.351c-0.045,0.088-0.188,0.028-0.281,0.082
		c0.005,0.007,0.37,0.494,0.37,0.494C123.139,8.739,123.139,8.739,123.532,8.88 M122.643,6.252c-0.26,0.1-0.436-0.003-0.555-0.252
		c-0.023,0.131,0.049,0.247-0.024,0.305c-0.065,0.052-0.183,0.038-0.323,0.061c0.113,0.056,0.178,0.104,0.253,0.122
		c0.108,0.025,0.144,0.085,0.113,0.186c-0.013,0.038-0.03,0.068,0.006,0.096c0.024,0.02-0.006,0.074,0.062,0.082
		c0.142-0.36,0.317-0.051,0.487-0.032c-0.002-0.138-0.141-0.168-0.175-0.269C122.44,6.409,122.639,6.396,122.643,6.252
		 M121.959,4.18c-0.318,0.094-0.469-0.048-0.562-0.307c-0.049,0.148,0.045,0.271-0.07,0.346c-0.085,0.057-0.197-0.051-0.312,0.051
		c0.279,0.059,0.438,0.203,0.367,0.53c0.123-0.256,0.277-0.23,0.451-0.095C121.769,4.362,121.769,4.362,121.959,4.18 M124.5,8.911
		c-0.02,0.043-0.263,0.388-0.298,0.406c0.112,0.038,0.222,0.062,0.316,0.111c0.12,0.064,0.024,0.22,0.108,0.335
		c0.118-0.35,0.307-0.145,0.496-0.073c-0.203-0.299-0.203-0.299-0.068-0.581C124.785,9.246,124.612,9.157,124.5,8.911
		 M122.704,3.171c-0.297,0.07-0.42-0.093-0.501-0.339c0.017,0.23-0.004,0.4-0.319,0.327c0.237,0.112,0.356,0.269,0.295,0.521
		c0.125-0.021,0.129-0.152,0.203-0.165c0.092-0.015,0.119,0.115,0.211,0.127c0.027,0.003,0.045,0.045,0.078,0.01
		C122.526,3.386,122.526,3.386,122.704,3.171 M122.987,1.905c-0.004,0.086,0.023,0.195-0.021,0.252
		c-0.061,0.078-0.17-0.027-0.261,0.007c-0.007,0.004-0.014,0.011-0.016,0.012c0.088,0.159,0.401,0.181,0.264,0.476
		c-0.005,0.011,0.021,0.041,0.038,0.055c0.036,0.028,0.046-0.004,0.066-0.031c0.054-0.072,0.113-0.119,0.195-0.041
		c0.021,0.021,0.053,0.03,0.078,0.044c0.022,0.011,0.035,0.047,0.084,0.018c-0.064-0.147-0.169-0.304,0.079-0.433
		C123.17,2.328,123.113,2.091,122.987,1.905 M123.598,4.789c0.121-0.166,0.23-0.197,0.359-0.063
		c0.026,0.026,0.064,0.051,0.112,0.021c-0.034-0.094-0.121-0.146-0.155-0.227c-0.049-0.122,0.143-0.103,0.154-0.237
		c-0.281,0.073-0.387-0.121-0.49-0.323c-0.007,0.093-0.023,0.164-0.078,0.236c-0.059,0.078-0.131,0.046-0.207,0.063
		C123.533,4.354,123.643,4.518,123.598,4.789 M124.377,6.723c0.168-0.282,0.305-0.004,0.453-0.024
		c-0.051-0.145-0.302-0.271-0.002-0.468c-0.271,0.035-0.441-0.052-0.531-0.296c0.067,0.238-0.047,0.312-0.289,0.31
		C124.245,6.353,124.4,6.467,124.377,6.723 M124.896,8.173c0.229,0.076,0.356,0.219,0.336,0.468
		c0.095-0.063,0.086-0.222,0.226-0.182c0.09,0.023,0.172,0.069,0.271,0.11c-0.187-0.305-0.187-0.305-0.093-0.502
		c-0.295,0.15-0.375-0.096-0.517-0.254C125.094,7.979,125.19,8.183,124.896,8.173 M123.98,3.339c0.125,0.116,0.228,0.148,0.29,0.232
		c0.066,0.093-0.01,0.215,0.044,0.31c0.084-0.035,0.112-0.171,0.226-0.109c0.077,0.042,0.111,0.144,0.225,0.158
		c-0.027-0.096-0.104-0.154-0.141-0.232c-0.062-0.126,0.123-0.112,0.148-0.228c-0.247-0.002-0.407-0.123-0.465-0.384
		C124.355,3.345,124.219,3.381,123.98,3.339 M127.201,9.295c-0.202-0.111-0.289-0.234-0.118-0.435
		c-0.095,0.011-0.158,0.014-0.219,0.025c-0.092,0.019-0.107-0.062-0.152-0.104c-0.041-0.036-0.084-0.066-0.127-0.1
		c0.086,0.206-0.013,0.268-0.221,0.284c0.241,0.054,0.331,0.214,0.357,0.46C126.818,9.05,127.002,9.302,127.201,9.295 M124.95,5.057
		c-0.046,0.089,0.032,0.188-0.021,0.247c-0.058,0.066-0.153-0.036-0.26,0.031c0.215,0.092,0.383,0.206,0.334,0.489
		c0.182-0.299,0.307-0.04,0.457-0.006c-0.158-0.253-0.158-0.253-0.037-0.438C125.165,5.349,125.165,5.349,124.95,5.057
		 M125.069,2.361c-0.053,0.083,0.018,0.201-0.075,0.237c-0.082,0.033-0.157-0.078-0.276-0.053c0.193,0.137,0.379,0.268,0.277,0.572
		c0.189-0.149,0.189-0.148,0.352-0.017c0.037,0.029,0.078,0.051,0.125,0.081c0.002-0.149-0.305-0.281,0.031-0.444
		C125.237,2.735,125.141,2.562,125.069,2.361 M126.741,3.992c-0.273-0.008-0.344-0.225-0.484-0.429
		c0.029,0.204-0.033,0.282-0.203,0.242c0.031,0.119,0.162,0.122,0.193,0.202c0.034,0.085,0.028,0.187,0.047,0.34
		c0.125-0.24,0.229-0.069,0.356-0.047C126.621,4.181,126.574,4.062,126.741,3.992 M127.979,9.388
		c0.09,0.234-0.079,0.252-0.237,0.297c0.218,0.037,0.375,0.123,0.378,0.385c0.073-0.221,0.182-0.21,0.312-0.113
		c0.027,0.021,0.062,0.017,0.101-0.023c-0.106-0.099-0.323-0.178-0.053-0.374C128.258,9.623,128.105,9.565,127.979,9.388
		 M127.999,5.144c-0.281,0.021-0.352-0.19-0.476-0.359c0.069,0.242-0.108,0.188-0.239,0.212c0.169,0.083,0.258,0.197,0.238,0.385
		c-0.01,0.07,0.061,0.045,0.095,0.026c0.106-0.056,0.19-0.014,0.298,0.062C127.874,5.335,127.811,5.221,127.999,5.144
		 M125.461,7.169c0.283,0.163,0.283,0.163,0.368,0.466c0.077-0.111,0.166-0.185,0.345-0.106c-0.146-0.164-0.025-0.259,0.054-0.395
		c-0.255,0.097-0.371-0.04-0.485-0.208C125.738,7.177,125.738,7.177,125.461,7.169 M127.408,7.25
		c0.19,0.078,0.315,0.192,0.319,0.456c0.162-0.327,0.279-0.059,0.425-0.057c-0.097-0.106-0.233-0.194-0.073-0.377
		c-0.262,0.124-0.297-0.151-0.473-0.216C127.61,7.188,127.559,7.262,127.408,7.25 M129.081,6.418
		c0.025-0.091,0.081-0.184,0.059-0.241c-0.025-0.062-0.135-0.066-0.215-0.082c-0.012-0.002-0.029-0.007-0.031-0.014
		c-0.055-0.275-0.215-0.129-0.352-0.07c-0.005,0.003-0.005,0.018-0.008,0.041c0.182,0.049,0.252,0.191,0.27,0.411
		C128.903,6.226,128.987,6.382,129.081,6.418 M127.342,6.057c-0.029-0.118-0.205-0.222,0.023-0.339
		C127.1,5.744,127,5.574,126.903,5.396c-0.032,0.081,0.05,0.155-0.007,0.207c-0.058,0.052-0.134-0.045-0.22,0.003
		c0.121,0.127,0.347,0.178,0.283,0.444C127.125,5.801,127.201,6.061,127.342,6.057 M129.364,5.351
		c-0.006-0.002-0.016-0.007-0.016-0.007c-0.03,0.056,0.02,0.118-0.025,0.176c-0.072,0.011-0.135-0.056-0.219-0.023
		c0.139,0.097,0.292,0.177,0.258,0.415c0.189-0.217,0.234,0.044,0.366,0.044c-0.056-0.091-0.125-0.178-0.026-0.278
		c0.044-0.045,0.006-0.049-0.023-0.048C129.482,5.637,129.426,5.489,129.364,5.351 M130.143,9.666
		c-0.09-0.084-0.197-0.159,0.015-0.281c-0.198-0.019-0.356-0.031-0.472-0.181c0.133,0.229-0.059,0.205-0.202,0.234
		c0.177,0.069,0.36,0.071,0.335,0.314C129.918,9.618,130.021,9.641,130.143,9.666 M129.391,8.396
		c-0.043-0.1-0.116-0.129-0.186-0.203c0.041-0.037,0.084-0.076,0.127-0.114c-0.213,0.062-0.306-0.09-0.422-0.22
		c-0.017,0.086,0.059,0.136,0.012,0.199c-0.063-0.003-0.125-0.005-0.186-0.008c0.15,0.076,0.29,0.146,0.271,0.402
		C129.144,8.173,129.254,8.375,129.391,8.396 M131.273,6.385c0.046-0.062-0.017-0.136,0.04-0.169
		c0.129-0.075,0.016-0.11-0.021-0.117c-0.142-0.028-0.203-0.128-0.248-0.259c-0.015,0.096,0.016,0.216-0.205,0.168
		c0.166,0.109,0.207,0.223,0.194,0.385C131.131,6.318,131.213,6.272,131.273,6.385 M130.863,6.595
		c-0.242,0.006-0.315-0.156-0.401-0.288c-0.121,0.19,0.012,0.333,0.045,0.51c0.09-0.089,0.176-0.066,0.283,0
		C130.719,6.725,130.721,6.656,130.863,6.595 M131.415,7.997c-0.103-0.042-0.045-0.1,0.07-0.188c-0.252,0.07-0.299-0.126-0.43-0.186
		c-0.03,0.045,0.045,0.073,0.01,0.119c-0.062,0.026-0.115-0.065-0.205,0.01C131.1,7.758,131.116,8.125,131.415,7.997 M132.174,9.171
		c-0.021-0.075-0.15-0.094-0.094-0.162c0.059-0.07,0.039-0.076-0.021-0.08c-0.129-0.009-0.225-0.068-0.307-0.189
		c0.065,0.187-0.041,0.156-0.123,0.136c0.051,0.057,0.148,0.049,0.187,0.128c0.017,0.036,0.024,0.11,0.065,0.088
		C132.012,9.02,132.074,9.132,132.174,9.171 M132.104,8.497c0.143,0.111,0.218,0.326,0.465,0.261
		c0.014-0.115-0.098-0.143-0.176-0.215C132.295,8.454,132.215,8.438,132.104,8.497 M123.422,2.762
		c-0.002,0.004-0.006,0.009-0.006,0.012c0.008,0.016,0.016,0.016,0.022-0.002c0.001-0.003-0.002-0.009-0.007-0.011
		C123.43,2.759,123.426,2.761,123.422,2.762 M124.432,10.896c-0.004-0.003-0.008-0.009-0.012-0.009s-0.008,0.007-0.011,0.011
		l0.017,0.009C124.428,10.903,124.43,10.9,124.432,10.896"/>
</g>
<g>
	<path fill="#D32F29" d="M126.844,21.082c-0.443-0.075-0.805,0.099-1.133,0.425c-0.121-0.32-0.254-0.635-0.363-0.958
		c-0.057-0.169-0.122-0.333-0.192-0.495c-0.114-0.265-0.11-0.35,0.134-0.506c0.26-0.168,0.535-0.344,0.866-0.213
		c-0.001-0.373,0.331-0.642,0.659-0.519c0.197,0.073,0.354,0.012,0.529-0.062c0.214-0.088,0.388-0.243,0.598-0.338
		c0.273-0.125,0.559-0.204,0.844-0.288c0.313-0.091,0.574-0.294,0.831-0.491c0.406-0.31,0.785-0.649,1.151-1.002
		c0.227-0.219,0.43-0.465,0.648-0.692c0.453-0.474,0.844-1.002,1.321-1.457c0.349-0.334,0.716-0.631,1.136-0.868
		c0.435-0.246,0.861-0.189,1.282-0.039c0.29,0.104,0.587,0.166,0.896,0.196c0.307,0.03,0.572-0.105,0.795-0.301
		c0.336-0.291,0.652-0.604,0.97-0.914c0.39-0.381,0.771-0.771,1.158-1.153c0.433-0.424,0.879-0.833,1.317-1.249
		c0.508-0.481,1.053-0.916,1.646-1.267c0.545-0.323,1.146-0.521,1.79-0.415c0.17,0.028,0.284,0.153,0.446,0.188
		c-0.336-0.062-0.657-0.002-0.976,0.126c-0.577,0.23-1.069,0.598-1.552,0.984c-0.527,0.42-1.027,0.872-1.506,1.344
		c-0.449,0.441-0.879,0.9-1.309,1.359c-0.398,0.426-0.791,0.858-1.179,1.291c-0.17,0.191-0.317,0.396-0.532,0.549
		c-0.188,0.136-0.384,0.158-0.59,0.121c-0.217-0.039-0.412-0.134-0.539-0.312c-0.087-0.125-0.201-0.141-0.322-0.102
		c-0.15,0.048-0.299,0.049-0.446,0.04c-0.587-0.035-1.042,0.251-1.45,0.639c-0.514,0.487-0.878,1.087-1.279,1.66
		c-0.479,0.683-1.013,1.327-1.582,1.942c-0.275,0.297-0.548,0.599-0.854,0.868c-0.334,0.293-0.699,0.512-1.132,0.602
		c-0.273,0.057-0.496,0.222-0.732,0.358c-0.113,0.064-0.232,0.112-0.337,0.194c-0.13,0.1-0.278,0.083-0.408,0.02
		c-0.208-0.1-0.368-0.024-0.524,0.127c-0.155,0.149-0.183,0.308-0.09,0.486c0.015,0.027,0.021,0.058,0.029,0.087
		C126.858,21.061,126.851,21.071,126.844,21.082"/>
</g>
<g>
	<path fill="#D32F29" d="M124.407,17.972c-0.204-0.561-0.4-1.087-0.59-1.617c-0.063-0.179,0.115-0.259,0.213-0.311
		c0.24-0.124,0.494-0.274,0.775-0.136c0.047,0.024,0.078-0.026,0.114-0.046c0.204-0.107,0.413-0.216,0.644-0.206
		c0.34,0.014,0.644-0.104,0.941-0.255c0.419-0.211,0.882-0.27,1.312-0.443c0.277-0.112,0.539-0.253,0.811-0.374
		c0.516-0.229,0.962-0.585,1.458-0.851c0.315-0.17,0.604-0.394,0.919-0.571c0.658-0.372,1.34-0.685,2.068-0.892
		c0.541-0.154,1.062-0.076,1.592-0.048c0.562,0.029,1.096-0.102,1.581-0.43c0.315-0.214,0.633-0.427,0.95-0.638
		c0.332-0.221,0.607-0.505,0.881-0.789c0.351-0.364,0.751-0.669,1.141-0.986c0.391-0.319,0.803-0.616,1.244-0.863
		c0.456-0.255,0.923-0.481,1.438-0.576c0.332-0.061,0.578,0.134,0.863,0.231c-0.174,0.029-0.352,0.045-0.523,0.088
		c-0.473,0.119-0.887,0.377-1.299,0.624c-0.59,0.353-1.115,0.798-1.635,1.245c-0.344,0.297-0.67,0.62-0.982,0.958
		c-0.213,0.231-0.469,0.428-0.711,0.632c-0.32,0.271-0.65,0.533-0.974,0.803c-0.411,0.347-0.842,0.564-1.399,0.475
		c-0.317-0.051-0.635-0.113-0.961-0.144c-0.342-0.032-0.656,0.062-0.955,0.183c-0.48,0.193-0.922,0.479-1.338,0.801
		c-0.73,0.563-1.412,1.188-2.146,1.747c-0.453,0.345-0.914,0.69-1.438,0.92c-0.358,0.158-0.75,0.227-1.117,0.37
		c-0.195,0.076-0.355,0.215-0.555,0.285c-0.158,0.058-0.312,0.105-0.477,0.074c-0.225-0.042-0.421,0.016-0.594,0.175
		c-0.105,0.097-0.23,0.14-0.37,0.164C124.971,17.627,124.657,17.696,124.407,17.972"/>
</g>
<g>
	<path fill="#D32F29" d="M141.262,7.671c-0.43,0.138-0.838,0.271-1.215,0.485c-0.355,0.201-0.725,0.375-1.053,0.635
		c-0.197,0.156-0.426,0.281-0.632,0.437c-0.374,0.278-0.733,0.572-1.045,0.918c-0.313,0.347-0.694,0.602-1.093,0.821
		c-0.396,0.219-0.825,0.358-1.26,0.479c-0.473,0.131-0.937,0.064-1.403,0.062c-0.802-0.003-1.576,0.162-2.353,0.396
		c-0.563,0.17-1.113,0.378-1.662,0.586c-0.397,0.149-0.785,0.326-1.176,0.492c-0.691,0.292-1.406,0.509-2.121,0.726
		c-0.313,0.096-0.635,0.185-0.924,0.355c-0.052,0.03-0.109,0.021-0.166,0.022c-0.346,0.01-0.687,0.043-0.99,0.265
		c-0.057,0.043-0.141,0.054-0.215,0.072c-0.199,0.05-0.402,0.088-0.574,0.223c-0.086,0.066-0.137,0.052-0.174-0.059
		c-0.15-0.453-0.305-0.904-0.471-1.351c-0.066-0.177,0.016-0.25,0.165-0.311c0.224-0.092,0.457-0.136,0.69-0.188
		c0.406-0.092,0.804-0.232,1.209-0.334c1.052-0.264,2.092-0.574,3.145-0.838c0.998-0.25,2.003-0.424,3.018-0.537
		c0.787-0.087,1.572-0.202,2.363-0.233c0.209-0.008,0.42,0.004,0.629,0.006c0.736,0.008,1.432-0.182,2.092-0.527
		c0.287-0.149,0.543-0.34,0.763-0.593c0.228-0.263,0.509-0.479,0.797-0.676c0.433-0.298,0.866-0.604,1.319-0.867
		c0.543-0.314,1.113-0.581,1.727-0.696C140.865,7.401,141.081,7.51,141.262,7.671"/>
</g>
<g>
	<path fill="#D32F29" d="M134.056,10.116c-0.08-0.225-0.271-0.368-0.4-0.56c-0.065-0.096-0.131-0.188-0.174-0.296
		c0.666,0.079,1.289-0.096,1.886-0.412c0.25-0.131,0.455-0.326,0.686-0.484c0.307-0.21,0.63-0.385,0.947-0.571
		c0.557-0.329,1.151-0.566,1.756-0.781c0.445-0.158,0.826-0.052,1.235,0.162c-0.614,0.088-1.129,0.37-1.646,0.627
		c-0.456,0.227-0.898,0.491-1.321,0.79c-0.383,0.271-0.698,0.625-1.078,0.886C135.377,9.864,134.758,10.148,134.056,10.116"/>
</g>
<g>
	<path fill="#D32F29" d="M132.918,8.362c-0.193-0.264-0.354-0.545-0.438-0.867c0.274-0.03,0.523,0.096,0.791,0.096
		c0.449-0.003,0.887-0.079,1.312-0.251c0.85-0.345,1.707-0.66,2.596-0.876c0.402-0.098,0.792-0.091,1.168,0.056
		c0.046,0.018,0.084,0.047,0.092,0.118c-0.332,0.053-0.642,0.178-0.957,0.285c-0.566,0.193-1.119,0.418-1.658,0.689
		c-0.481,0.243-0.922,0.574-1.461,0.701c-0.36,0.085-0.711,0.172-1.074,0.084C133.17,8.368,133.042,8.373,132.918,8.362"/>
</g>
<g>
	<path fill="#D32F29" d="M142.321,14.199c-0.252-0.116-0.496-0.212-0.723-0.341c-0.146-0.082-0.125-0.275-0.145-0.417
		c-0.07-0.494,0.078-0.966,0.259-1.435c0.198-0.511,0.474-0.984,0.765-1.446c0.234-0.37,0.514-0.712,0.793-1.052
		c0.092-0.111,0.172-0.231,0.25-0.353c0.037-0.057,0.071-0.124,0.082-0.188c0.037-0.212,0.072-0.243,0.275-0.207
		c0.021,0.003,0.032,0.022,0.062,0.018c0.1-0.017,0.225-0.025,0.264,0.066c0.05,0.117,0.035,0.254-0.051,0.375
		c-0.182,0.261-0.396,0.496-0.586,0.749c-0.342,0.455-0.652,0.929-0.894,1.444c-0.144,0.304-0.28,0.608-0.388,0.923
		c-0.111,0.322-0.213,0.646-0.212,0.987c0.001,0.26,0.038,0.506,0.202,0.713C142.305,14.073,142.33,14.117,142.321,14.199"/>
</g>
<g>
	<path fill="#D32F29" d="M147.221,11.723c-0.213-0.041-0.381-0.099-0.562-0.1c-0.051,0-0.046-0.016-0.029-0.072
		c0.031-0.095-0.066-0.057-0.111-0.051c-0.361,0.054-0.689,0.208-1.008,0.387c-0.455,0.255-0.791,0.645-1.135,1.026
		c-0.259,0.289-0.476,0.61-0.75,0.887c-0.174,0.178-0.357,0.342-0.582,0.452c-0.266,0.131-0.511,0.046-0.64-0.204
		c-0.036-0.068,0.007-0.091,0.046-0.118c0.581-0.403,0.943-1.009,1.42-1.508c0.531-0.553,1.159-0.935,1.872-1.183
		c0.39-0.135,0.71,0.027,0.992,0.219c0.106,0.072,0.216,0.107,0.325,0.155C147.108,11.635,147.163,11.644,147.221,11.723"/>
</g>
<g>
	<path fill="#D32F29" d="M132.096,6.612c-0.139-0.271-0.281-0.539-0.28-0.86c0.249-0.023,0.468,0.089,0.701,0.134
		c0.327,0.063,0.651,0.083,0.981,0.05c0.914-0.093,1.828-0.101,2.743-0.114c0.265-0.004,0.501,0.131,0.787,0.267
		c-0.514,0.069-0.971,0.12-1.422,0.22c-0.54,0.12-1.082,0.229-1.623,0.349c-0.519,0.114-1.03,0.149-1.536-0.003
		C132.336,6.621,132.213,6.625,132.096,6.612"/>
</g>
<g>
	<path fill="#D32F29" d="M142.731,9.177c-0.008,0.104-0.102,0.141-0.16,0.204c-0.544,0.591-1.012,1.229-1.398,1.934
		c-0.361,0.655-0.566,1.326-0.522,2.077c-0.218-0.098-0.437-0.174-0.63-0.288c-0.168-0.097-0.096-0.293-0.076-0.44
		c0.081-0.654,0.388-1.229,0.729-1.795c0.271-0.449,0.699-0.723,1.077-1.055c0.243-0.215,0.533-0.361,0.776-0.574
		c0.056-0.05,0.109-0.084,0.184-0.082C142.717,9.164,142.723,9.171,142.731,9.177"/>
</g>
<g>
	<path fill="#D32F29" d="M142.192,13.16c0.05-0.568,0.256-1.081,0.516-1.571c0.08-0.151,0.256-0.255,0.391-0.378
		c0.377-0.344,0.838-0.538,1.299-0.716c0.154-0.06,0.306,0.085,0.459,0.135c0.033,0.011,0.06,0.041,0.092,0.059
		c0.052,0.027,0.154,0.025,0.15,0.073c-0.01,0.093-0.115,0.08-0.184,0.1c-0.574,0.164-1.029,0.521-1.47,0.913
		c-0.419,0.371-0.749,0.812-1.089,1.246C142.315,13.071,142.276,13.12,142.192,13.16"/>
</g>
<g>
	<path fill="#D32F29" d="M131.543,4.843c-0.104-0.257-0.182-0.521-0.189-0.805c0.708,0.208,1.395,0.471,2.085,0.724
		c0.437,0.159,0.877,0.309,1.315,0.466c0.211,0.076,0.42,0.159,0.675,0.256c-0.231,0.033-0.397-0.043-0.571-0.059
		c-0.431-0.04-0.859-0.117-1.289-0.17c-0.332-0.04-0.664-0.076-0.99-0.141C132.226,5.045,131.881,4.96,131.543,4.843"/>
</g>
<g>
	<path fill="#D32F29" d="M139.227,12.403c-0.027,0.083,0.046,0.226-0.082,0.271c-0.077,0.027-0.229-0.083-0.213-0.125
		c0.035-0.102,0.107-0.219,0.232-0.254C139.244,12.271,139.234,12.339,139.227,12.403"/>
</g>
<g>
	<path fill="#D32F29" d="M126.864,21.049c0.025,0.008,0.037,0.034,0.025,0.05c-0.021,0.027-0.033-0.002-0.045-0.017
		C126.85,21.07,126.858,21.061,126.864,21.049"/>
</g>
<g>
	<path fill="#D32F29" d="M142.71,9.157c0.009-0.03,0.04-0.043,0.054-0.025c0.02,0.023-0.016,0.033-0.033,0.045
		C142.723,9.171,142.717,9.164,142.71,9.157"/>
</g>
<g>
	<path fill="#244497" d="M131.567,7.312c0.002,0.016,0.003,0.03,0.004,0.046c-0.014-0.003-0.027-0.006-0.041-0.008
		C131.542,7.337,131.553,7.324,131.567,7.312"/>
</g>
</svg>
